<?xml version="1.0" encoding="UTF-8"?>
<!DOCTYPE svg  PUBLIC '-//W3C//DTD SVG 1.1//EN'  'http://www.w3.org/Graphics/SVG/1.1/DTD/svg11.dtd'>
<svg enable-background="new 0 0 152.7 88.35" version="1.1" viewBox="0 0 152.7 88.35" xml:space="preserve" xmlns="http://www.w3.org/2000/svg">
<g clip-rule="evenodd" fill-rule="evenodd">
	<path d="m125.2 21.9c0.063 0.044 0.063 0.178 0 0.4-0.7 0.1-1.4 0.034-2.101-0.2 0.534 0.9 0.334 1.8-0.6 2.7-0.833 0.833-1.783 1.25-2.85 1.25-0.367 0-0.684-0.1-0.95-0.3-0.533 1.2-1.167 1.7-1.9 1.5-0.399-0.1-0.616-0.367-0.649-0.8 0.066-0.567 0.1-1 0.1-1.3-0.333 0.2-0.85 0.517-1.55 0.95-0.634 0.333-1.2 0.417-1.7 0.25 0.5 0.433 0.85 1.25 1.05 2.45 0.233 1.233 0.117 2.083-0.35 2.55-0.367 0.367-0.75 0.5-1.15 0.4 0.334 0.367 0.5 0.833 0.5 1.4s-0.184 0.983-0.55 1.25c-0.3 0.2-0.684 0.267-1.15 0.2-0.366-0.067-0.616-0.2-0.75-0.4 0.067 0.267 0.134 0.6 0.2 1 0.033 0.5 0.017 0.9-0.05 1.2-0.1 0.434-0.25 0.684-0.45 0.75-0.133 0.067-0.5 0.1-1.1 0.1-1.134 0-1.783-0.317-1.95-0.95-0.134 1.034-1.15 1.417-3.05 1.15v-0.7c-0.4 0.5-0.884 0.867-1.45 1.1-0.634 0.233-1.217 0.267-1.75 0.1-0.2-0.667-0.134-1.517 0.2-2.55 0.5-1.566 0.767-2.417 0.8-2.55-0.8 0.1-1.434 0.167-1.9 0.2-0.8 0.034-1.3-0.15-1.5-0.55-0.199-0.5 0.317-1.267 1.551-2.3 0.933-0.767 1.767-1.35 2.5-1.75-1.9 0.5-3.551 0.517-4.95 0.05 0.166-0.333 0.5-0.667 1-1l1.25-0.8h-1.2c0-0.333 0.083-0.667 0.25-1-0.4 0-1.15 0.117-2.25 0.35-0.934 0.167-1.684 0.217-2.25 0.15-0.167-0.9 0.066-1.65 0.7-2.25-0.667 0.1-1.167 0.167-1.5 0.2-0.566 0.067-1.066 0.083-1.5 0.05-0.066-0.5 0.866-1.133 2.8-1.9 1.533-0.566 2.767-0.95 3.7-1.15-2.2 0.4-3.384 0.133-3.55-0.8 0-0.067 0.133-0.517 0.399-1.35 0.2-0.533 0.017-0.817-0.55-0.85 1-0.967 2-1.55 3-1.75-0.467 0.067-1.1 0.1-1.9 0.1 0.334-0.133 0.65-0.217 0.95-0.25l0.851-0.05c0.199 0 0.416 0.033 0.649 0.1v3.05c1.367-0.533 2.167-0.517 2.4 0.05 0.133 0.333 0.3 1.133 0.5 2.4 0.866 0.034 1.934 0.217 3.2 0.55 1.466 0.433 2.517 0.683 3.149 0.75 0-0.667 0.233-1.167 0.7-1.5 0.5-0.333 1.066-0.383 1.7-0.15l0.05 0.7 0.05-0.2c0.2-0.067 0.467-0.117 0.8-0.15l0.15-2.2c0.667 0 1.283 0.566 1.85 1.7-0.066-0.566-0.116-1.033-0.149-1.4-0.033-0.7 0.033-1.15 0.2-1.35 0.333-0.367 0.683-0.517 1.05-0.45 0.366 0.066 0.616 0.35 0.75 0.85-0.2-1.233 0.017-2.034 0.649-2.4 0.634-0.4 1.034-0.066 1.2 1 0.233-1.333 0.884-1.983 1.95-1.95 1.1 0.033 1.55 0.95 1.35 2.75 1.067-1.867 2.733-3.1 5-3.7 0.601 0.833 0.384 2.133-0.649 3.9 1.2-0.3 1.816 0.067 1.85 1.1s-0.55 1.583-1.75 1.65c0.334 0.1 0.55 0.25 0.65 0.45v0.15zm-99.2 1.75l0.2 0.15-0.15-0.15c0.029-0.087 0.071-0.137 0.125-0.15h0.025v-0.05c0.133-0.167 0.3-0.217 0.5-0.15h0.1c0.133 0.034 0.284 0.117 0.45 0.25v0.05c0.033 0 0.05 0.017 0.05 0.05h0.05c0.066 0.133 0.15 0.283 0.25 0.45 0.233 0.5 0.233 1.133 0 1.9 0.5-0.2 1.333-0.067 2.5 0.4 0.233 0.1 0.967 0.434 2.2 1l0.1-0.85 1.7 0.9c0.267-1.2 0.75-1.817 1.45-1.85l0.05 0.15c-0.067-1.133 0.233-1.767 0.9-1.9 0.4-0.067 1.333-0.133 2.8-0.2-0.033-0.733 0.217-1.133 0.75-1.2 0.3-0.034 0.833-0.034 1.6 0 0.867-0.1 1.317-0.184 1.35-0.25-0.033-0.3 0.017-0.733 0.15-1.3 0.167-0.733 0.283-1.267 0.35-1.6 0.133-0.566 0.333-1.1 0.6-1.6 0.167-0.233 0.283-0.417 0.35-0.55 0.133-0.233 0.2-0.5 0.2-0.8 0.167-0.133 0.383-0.15 0.65-0.05-0.066-0.367-0.283-0.833-0.65-1.4-0.367-0.566-0.583-1.05-0.65-1.45l-0.05-0.75c0.167-1.133 1.617-0.567 4.35 1.7 0 1.434-0.117 2.533-0.35 3.3-0.167 0.5-0.434 0.9-0.8 1.2-0.5 0.434-0.816 0.733-0.95 0.9-0.2 0.3-0.267 0.583-0.2 0.85 0.033 0.167 0.1 0.434 0.2 0.8 0.233 1.667 0.35 2.716 0.35 3.15 0 1.566-0.483 2.3-1.45 2.2-0.3-0.066-0.483-0.117-0.55-0.15-0.133-0.1-0.216-0.283-0.25-0.55-0.167 0.333-0.5 0.6-1 0.8-0.566 0.267-1 0.283-1.3 0.05l-0.1-0.35c-0.4 1.467-1.867 1.833-4.4 1.1-0.2 0.367-0.55 0.85-1.05 1.45 3.367 0.467 4.883 1.25 4.55 2.35l-0.15 0.25c0.967 0.067 1.783 0.267 2.45 0.6 0.8 0.4 1.217 0.95 1.25 1.65 0 0.367-0.1 0.667-0.3 0.9-0.2 0.267-0.483 0.383-0.85 0.35 0 0.033 0.8 0.183 2.4 0.45 1.567 0.5 2.317 1.3 2.25 2.4-0.033 0.767-0.267 1.217-0.7 1.35-0.6 0.066-1.117 0.183-1.55 0.35 0.1 1.034 0.083 1.667-0.05 1.9-0.2 0.333-0.783 0.517-1.75 0.55-1.467 0-2.3-0.017-2.5-0.05 0.067 0.367 0.05 0.75-0.05 1.15-0.133 0.433-0.317 0.733-0.55 0.9-0.5 0.267-1.2 0.367-2.1 0.3-1-0.133-1.7-0.233-2.1-0.3v1.75c0 0.066 0.066 0.25 0.2 0.55 0.1 0.267 0.133 0.467 0.1 0.601-0.1 0.833-0.633 1.216-1.6 1.149-0.833-0.066-1.233-0.366-1.2-0.899-0.2 0.6-0.817 1.017-1.85 1.25-0.9 0.199-1.817 0.216-2.75 0.05-0.4-0.667-0.317-1.834 0.25-3.5-0.5 0.533-1.2 0.866-2.1 1-0.933 0.133-1.583-0.05-1.95-0.55 0.167-0.867 0.633-1.617 1.4-2.25 0.4-0.367 1.167-0.883 2.3-1.55-0.8 0.133-1.383 0.183-1.75 0.15-0.133-0.433-0.083-0.95 0.15-1.55 0.233-0.567 0.567-1.034 1-1.4-0.566 0-1.083-0.1-1.55-0.3 0.2-0.533 0.45-0.967 0.75-1.3-0.7 0.167-1.283 0.1-1.75-0.2 0.3-1.5 1.133-2.733 2.5-3.7-1.267 0.333-2.483 0.317-3.65-0.05-0.133-0.433 0.066-0.95 0.6-1.55 0.167-0.233 0.617-0.65 1.35-1.25-1.033-0.034-1.65-0.083-1.85-0.15-0.7-0.2-1.066-0.683-1.1-1.45-0.034-0.333 0.05-0.583 0.25-0.75 0.2-0.2 0.417-0.217 0.65-0.05-0.233-0.333-0.367-0.633-0.4-0.9-0.067-0.3 0.066-0.4 0.4-0.3-0.6-0.267-1-0.934-1.2-2-0.2-1.1-0.05-1.883 0.45-2.35l0.85 0.4c0.2 0.3 0.35 0.6 0.45 0.9 0.033 0.133 0.067 0.3 0.1 0.5 0.033-0.401 0.117-0.701 0.25-0.901zm38.8-20.35l-0.1-0.95c1.5-0.067 2.617 0.383 3.35 1.35 0.3 0.4 0.4 1.066 0.3 2-0.1 0.933-0.383 1.117-0.85 0.55 0.133 0.3 0.25 0.667 0.35 1.1 0.033 0.233 0.083 0.6 0.15 1.1 2.4 0.066 3.217 0.9 2.45 2.5 0.2 0.033 0.683 0 1.45-0.1 0.733-0.033 1.167 0.066 1.3 0.3 0.133 0.267 0.117 0.667-0.05 1.2-0.1 0.3-0.267 0.683-0.5 1.15 1.1 0.433 1.317 1.567 0.65 3.4-0.633 1.733-1.45 2.75-2.45 3.05 0.667 0.5 1.117 1.066 1.35 1.7 0.333 0.8 0.167 1.45-0.5 1.95-0.367 0.3-0.917 0.367-1.65 0.2-0.7-0.133-1.233-0.383-1.6-0.75 0 0.8-0.017 1.267-0.05 1.4-0.1 0.633-0.383 0.816-0.85 0.55-0.167-0.1-0.283-0.367-0.35-0.8-0.067-0.5-0.167-0.817-0.3-0.95-0.267 0.333-0.55 0.867-0.85 1.6-0.1 0.167-0.367 0.467-0.8 0.9-0.367 0.367-0.6 0.667-0.7 0.9-0.2 0.4-0.3 1.317-0.3 2.75 0 0.067 0.1 0.55 0.3 1.45 0.133 0.633 0.1 1.083-0.1 1.35-0.267 0.367-0.784 0.45-1.55 0.25-0.867-0.3-1.433-0.467-1.7-0.5 0 0.267 0.033 0.833 0.1 1.7 0 0.767-0.2 1.217-0.6 1.35-0.6 0.2-1.133-0.05-1.6-0.75-0.2-0.3-0.483-0.883-0.85-1.75v1.55c-0.067 0.633-0.35 0.95-0.85 0.95-0.633 0-0.95-0.383-0.95-1.15-0.1 0.367-0.367 0.6-0.8 0.7-0.433 0.133-0.816 0.1-1.15-0.1-0.6-0.3-0.8-1.067-0.6-2.3-0.333 0.4-0.7 0.667-1.1 0.8-0.5 0.133-0.933 0.033-1.3-0.3-0.5-0.433-0.633-1.117-0.4-2.05 0.2-0.767 0.583-1.517 1.15-2.25-0.933 0.333-1.7 0.316-2.3-0.05-0.034-1.033 0.333-2.167 1.1-3.4-0.233-0.033-0.617 0.017-1.15 0.15-0.5 0.167-0.9 0.217-1.2 0.15-0.1-0.8 0.733-1.717 2.5-2.75-0.633 0.033-1.117 0.066-1.45 0.1-0.633 0.034-1.083-0.066-1.35-0.3 0-0.5 0.533-1 1.6-1.5 1.2-0.6 1.883-1.033 2.05-1.3l-0.75-0.05c-0.2-0.433 0-0.683 0.6-0.75 0.1 0 0.55 0.033 1.35 0.1 0.367-0.8 0.7-1.367 1-1.7-0.433-0.167-0.583-0.383-0.45-0.65 0.067 0.033 0.133 0.067 0.2 0.1 0.267 0.133 0.533 0.367 0.8 0.7 0-0.733-0.017-1.317-0.05-1.75 0-0.833 0.183-1.333 0.55-1.5 0.733-0.3 1.217-0.05 1.45 0.75-0.067-1.267 0.383-2.15 1.35-2.65l0.05 0.85c0.2-0.633 0.583-0.883 1.15-0.75s0.95 0.583 1.15 1.35c0-2.067 0.617-2.833 1.85-2.3l0.05 0.2c0.066-0.367 0.217-0.65 0.45-0.85 0.067-0.566 0.267-0.966 0.6-1.2 0.367-0.267 0.8-0.2 1.3 0.2 0.333-0.2 0.767-0.316 1.3-0.35l1.4 0.1c-1.133-0.4-1.867-1.216-2.2-2.45-0.1-0.367-0.233-1.55-0.4-3.55zm26.65 12.9c-0.101 0-0.283-0.05-0.55-0.15 0.1-0.066 0.267-0.1 0.5-0.1l0.05 0.25zm1.25-0.25c0.566-0.534 1.083-0.85 1.55-0.95 0.066-0.033 0.134-0.05 0.2-0.05h0.2c0.133 0.5 0.183 1.017 0.149 1.55l-2.45-0.25c0.067-0.067 0.15-0.133 0.25-0.2l0.101-0.1zm-6.7 35.2c1.2 0.033 2.6 0.383 4.2 1.05l2.75 2.5c0.066 0.333-0.017 0.633-0.25 0.899-0.267 0.334-0.417 0.551-0.45 0.65-0.066 0.2-0.033 0.517 0.1 0.95 0.134 0.434 0.167 0.767 0.101 1-0.4 0.066-0.75 0-1.05-0.2-0.334 0.4-0.384 1.15-0.15 2.25 0.233 1.2 0.283 2 0.15 2.4-0.501 0.201-1.101 0.167-1.801-0.099-0.699-0.267-1.283-0.666-1.75-1.2 0.067 0.834 0.017 1.567-0.149 2.2-0.2 0.733-0.517 1.15-0.95 1.25-0.634 0.134-1.167-0.116-1.6-0.75-0.367-0.5-0.601-1.1-0.7-1.8 0.066 0.833-0.15 1.483-0.65 1.95-0.5 0.533-1.184 0.7-2.05 0.5-0.066-0.434 0.017-1.25 0.25-2.45-0.167 0.733-0.717 1.25-1.65 1.55-0.767 0.233-1.55 0.283-2.35 0.15-0.134-0.467-0.05-1.017 0.25-1.65 0.066-0.1 0.4-0.6 1-1.5-0.934 0.634-2.25 0.851-3.95 0.65 0.133-0.4 0.517-0.884 1.15-1.45-1.167 0.467-2.767 0.6-4.8 0.4-0.133-0.667 0.067-1.284 0.6-1.851 0.2-0.233 0.417-0.399 0.65-0.5-0.267-0.267-0.417-0.717-0.45-1.35-0.034-0.566 0.017-1.033 0.15-1.4 0.267-0.633 0.833-1.033 1.7-1.2 0.9-0.133 1.517 0.117 1.851 0.75 0.767-0.833 1.767-1.433 3-1.8 1.161-0.398 2.319-0.515 3.475-0.35-0.61-0.104-0.519-0.37 0.275-0.8 0.733-0.434 1.233-0.65 1.5-0.65 0.598-0.099 1.131-0.133 1.598-0.099zm-36.15-15.4l0.1-0.8 1.25-1c-0.1 1.1-0.55 1.7-1.35 1.8zm-2.65-2.65l0.75-1.15 0.25-2.25c0.033 3.367-0.3 4.5-1 3.4zm18.25 2.1l0.75-2.25c0.066 2.833 0.05 4.583-0.05 5.25-0.4 2.367-1.467 3.4-3.2 3.1-1.467-0.267-1.583-1.267-0.35-3 0.7-1 1.65-2.033 2.85-3.1z" fill="#939865"/>
	<path d="m94.65 14.95c0.267 0.767 0.267 1.566 0 2.4 0.5-0.367 0.983-0.65 1.449-0.85 0.801 0 1.434-0.033 1.9-0.1-1 0.2-2 0.783-3 1.75 0.566 0.033 0.75 0.317 0.55 0.85-0.267 0.833-0.399 1.283-0.399 1.35 0.166 0.933 1.35 1.2 3.55 0.8-0.934 0.2-2.167 0.583-3.7 1.15-1.934 0.767-2.866 1.4-2.8 1.9 0.434 0.033 0.934 0.017 1.5-0.05 0.333-0.033 0.833-0.1 1.5-0.2-0.634 0.6-0.867 1.35-0.7 2.25 0.566 0.066 1.316 0.017 2.25-0.15 1.1-0.233 1.85-0.35 2.25-0.35-0.167 0.333-0.25 0.667-0.25 1h1.2l-1.25 0.8c-0.5 0.333-0.834 0.667-1 1 1.399 0.467 3.05 0.45 4.95-0.05-0.733 0.4-1.567 0.983-2.5 1.75-1.233 1.033-1.75 1.8-1.551 2.3 0.2 0.4 0.7 0.583 1.5 0.55 0.467-0.033 1.101-0.1 1.9-0.2-0.033 0.133-0.3 0.983-0.8 2.55-0.334 1.033-0.4 1.883-0.2 2.55 0.533 0.167 1.116 0.133 1.75-0.1 0.566-0.233 1.05-0.6 1.45-1.1v0.7c1.899 0.267 2.916-0.117 3.05-1.15 0.167 0.633 0.816 0.95 1.95 0.95 0.6 0 0.967-0.033 1.1-0.1 0.2-0.066 0.351-0.316 0.45-0.75 0.066-0.3 0.083-0.7 0.05-1.2-0.066-0.4-0.133-0.733-0.2-1 0.134 0.2 0.384 0.333 0.75 0.4 0.467 0.066 0.851 0 1.15-0.2 0.366-0.267 0.55-0.683 0.55-1.25 0-0.566-0.166-1.033-0.5-1.4 0.4 0.1 0.783-0.033 1.15-0.4 0.467-0.467 0.583-1.317 0.35-2.55-0.2-1.2-0.55-2.017-1.05-2.45 0.5 0.167 1.066 0.083 1.7-0.25 0.7-0.434 1.217-0.75 1.55-0.95 0 0.3-0.033 0.733-0.1 1.3 0.033 0.433 0.25 0.7 0.649 0.8 0.733 0.2 1.367-0.3 1.9-1.5 0.267 0.2 0.583 0.3 0.95 0.3 1.066 0 2.017-0.417 2.85-1.25 0.934-0.9 1.134-1.8 0.6-2.7 0.7 0.233 1.4 0.3 2.101 0.2 0.063-0.222 0.063-0.355 0-0.4 0.064 0.043 0.082 0.16 0.05 0.35-0.066 0.267-0.283 0.733-0.65 1.4l1.051 0.15c0 0.067 0.017 0.25 0.05 0.55v0.05l-0.45 0.05c-1.3 0.1-2.066 0.183-2.3 0.25-0.233 0.1-0.566 0.683-1 1.75-0.2 0.433-0.351 1.4-0.45 2.9 0.667 0.133 1.134 0.517 1.4 1.15 0.199 0.6 0.199 1.233 0 1.9-0.634 0.267-1.067 0.417-1.301 0.45 0.7 0.167 1 0.683 0.9 1.55 0 0.067-0.184 0.767-0.55 2.1-0.233 0.733-0.367 1.233-0.4 1.5-0.066 0.1-0.6 0.383-1.6 0.85-0.101 0.066-0.434 0.183-1 0.35-0.134 0.066-0.316 0.333-0.55 0.8-0.067 0.2-0.034 0.717 0.1 1.55 0.167 0.767 0.134 1.267-0.1 1.5-0.334 0.367-0.801 0.534-1.4 0.5-0.533 0-1.05-0.15-1.55-0.45 0.566 0.833 0.717 1.767 0.45 2.8-0.867 0.3-1.5 0.199-1.9-0.301 0.533 0.867 0.667 2.284 0.4 4.25-0.367 0.167-0.867 0.217-1.5 0.15-0.9-0.1-1.417-0.15-1.551-0.15-1.866 0.134-3.3 0.2-4.3 0.2-1.733 0.066-3.133-0.116-4.2-0.55-1.033-0.167-1.816-0.667-2.35-1.5-0.233-0.066-0.667-0.05-1.3 0.05-0.566 0.066-0.983 0.033-1.25-0.1-0.7-0.367-1.05-1.316-1.05-2.851 0-1.833-0.117-2.933-0.351-3.3-0.666 0.633-1.316 0.733-1.95 0.3 0.067-0.367 0.45-1.533 1.15-3.5 0.5-1.5 0.75-2.684 0.75-3.55 0-0.2-0.066-0.483-0.2-0.85-0.133-0.4-0.217-0.733-0.25-1-0.033-0.534 0.05-1.233 0.25-2.1 0.334-1.267 0.517-1.983 0.55-2.15-0.366 1.267-1.166 2.283-2.399 3.05l-0.55 0.35c-0.334-0.167-0.467-0.417-0.4-0.75-0.3 0.833-0.9 1.583-1.8 2.25-0.867 0.566-1.783 0.95-2.75 1.15 0.1-0.733 0.05-1.433-0.15-2.1-0.267 0.333-0.649 0.85-1.149 1.55-0.101-0.7-0.567-1.534-1.4-2.5 0.134-0.667 0.184-1.167 0.15-1.5h-0.301c0.4-0.767 0.567-1.567 0.5-2.4-0.1-0.867-0.433-1.566-1-2.1 1-2.633 1.65-4.5 1.95-5.6 0.5-1.9 0.316-2.9-0.55-3-0.4 0.066-0.75 0.05-1.05-0.05 0.333 0.1 0.767 0.1 1.3 0 0.6-0.066 1.05-0.083 1.35-0.05l0.1 0.752c0.533-0.567 0.934-1 1.2-1.3 0.533-0.534 1.033-0.784 1.5-0.75-0.233 0-0.4 0.033-0.5 0.1 0.267 0.1 0.449 0.15 0.55 0.15 0.033 0.267 0.166 0.45 0.399 0.55l0.5-0.5 2.45 0.25c0.034-0.533-0.016-1.05-0.149-1.55zm56.45 23c-0.033-0.034-0.083-0.083-0.149-0.15-0.167-0.2-0.566-0.433-1.2-0.7 0.434 0.167 0.7 0.267 0.8 0.3 0.27 0.167 0.45 0.35 0.55 0.55zm-4.15 9.25c-0.033-0.033-0.05-0.066-0.05-0.101-0.067-0.233-0.15-0.416-0.25-0.55 0.13 0.168 0.23 0.385 0.3 0.651zm-0.4 2.25l0.2-0.55c0.134-0.5 0.2-0.934 0.2-1.301 0.03 0.634-0.1 1.251-0.4 1.851zm-125.55 21.95c-0.2 0.267-0.533 0.616-1 1.05l-0.4 0.55c0.1-0.267 0.316-0.566 0.65-0.9 0.367-0.3 0.617-0.534 0.75-0.7zm-0.55-0.2h-0.05c0.233-0.134 0.467-0.217 0.7-0.25-0.233 0.067-0.45 0.15-0.65 0.25zm0-1.35l-0.15 0.4c-0.033 0.2-0.066 0.5-0.1 0.9-0.033-0.567 0.05-1 0.25-1.3zm-15.65-9.55l-0.05 0.15c0 0.033-0.017 0.066-0.05 0.1 0.033-0.1 0.067-0.184 0.1-0.25zm6.65-3.3c-0.267 0.667-0.4 1.333-0.4 2s0.133 1.217 0.4 1.65c-0.733-1.134-0.65-2.551 0.25-4.25 0.867-1.667 1.867-2.2 3-1.601-0.6-0.3-1.2-0.25-1.8 0.15-0.6 0.435-1.083 1.117-1.45 2.051zm26.2 0.75c-0.333-0.167-0.583-0.384-0.75-0.65l0.05 1.601-0.05-0.65c-0.667 0.099-1.3 0.049-1.9-0.151l-0.3-1.15c-0.667 1.033-1.284 1.833-1.85 2.4-0.767 0.733-1.633 1.267-2.6 1.6-0.667 0.233-1.5 0.384-2.5 0.45-1.3 0.033-2.117-0.184-2.45-0.65-0.466-0.633-0.1-1.649 1.1-3.05 1.4-1.4 2.217-2.233 2.45-2.5-0.867 0.6-1.983 0.967-3.35 1.1-1.333 0.167-2.517 0.084-3.55-0.25 0.167-0.966 0.6-1.933 1.3-2.899 0.6-0.867 1.317-1.634 2.15-2.3-0.6 0.333-1.667 0.5-3.2 0.5-1.7-0.034-2.633-0.384-2.8-1.051-0.167-0.566 0.15-1.466 0.95-2.699 0.733-1.167 1.566-2.117 2.5-2.851-0.533-0.1-0.867-0.433-1-1-0.167-0.6 0.233-1.483 1.2-2.65 1.1-1.2 1.784-1.983 2.05-2.35-0.133-0.033-1.267 0.017-3.4 0.15-1.6 0.066-2.6-0.15-3-0.65 0.3-0.5 1.133-1.617 2.5-3.35 1.066-1.367 1.733-2.483 2-3.35-1.567 0.2-2.717 0.217-3.45 0.05 0.1 0.567 0.333 1.083 0.7 1.55-0.6-0.733-0.9-1.667-0.9-2.8 0.034-1.1 0.333-2.05 0.9-2.85-0.7-0.367-1.4-1.216-2.1-2.55-0.733-1.3-1.083-2.333-1.05-3.1 0.7-0.733 1.75-0.617 3.15 0.35 0.767 0.5 1.733 1.2 2.9 2.1 0.066-1.233 0.45-1.717 1.15-1.45 0.567 0.2 0.95 0.667 1.15 1.4-0.1-0.3-0.25-0.6-0.45-0.9l-0.85-0.4c-0.5 0.467-0.65 1.25-0.45 2.35 0.2 1.066 0.6 1.733 1.2 2-0.333-0.1-0.467 0-0.4 0.3 0.033 0.267 0.167 0.567 0.4 0.9-0.233-0.167-0.45-0.15-0.65 0.05-0.2 0.167-0.284 0.417-0.25 0.75 0.033 0.767 0.4 1.25 1.1 1.45 0.2 0.067 0.817 0.117 1.85 0.15-0.733 0.6-1.183 1.017-1.35 1.25-0.533 0.6-0.733 1.117-0.6 1.55 1.167 0.367 2.383 0.383 3.65 0.05-1.367 0.967-2.2 2.2-2.5 3.7 0.467 0.3 1.05 0.367 1.75 0.2-0.3 0.333-0.55 0.767-0.75 1.3 0.467 0.2 0.983 0.3 1.55 0.3-0.433 0.367-0.767 0.833-1 1.4-0.233 0.6-0.283 1.117-0.15 1.55 0.367 0.033 0.95-0.017 1.75-0.15-1.133 0.667-1.9 1.183-2.3 1.55-0.767 0.633-1.233 1.383-1.4 2.25 0.367 0.5 1.017 0.683 1.95 0.55 0.9-0.134 1.6-0.467 2.1-1-0.567 1.666-0.65 2.833-0.25 3.5 0.933 0.166 1.85 0.149 2.75-0.05 1.033-0.233 1.65-0.65 1.85-1.25-0.034 0.533 0.367 0.833 1.2 0.899 0.967 0.066 1.5-0.316 1.6-1.149 0.033-0.134 0-0.334-0.1-0.601-0.133-0.3-0.2-0.483-0.2-0.55v-1.75c0.4 0.067 1.1 0.167 2.1 0.3 0.9 0.067 1.6-0.033 2.1-0.3 0.233-0.167 0.417-0.467 0.55-0.9 0.1-0.4 0.117-0.783 0.05-1.15 0.2 0.033 1.033 0.05 2.5 0.05 0.967-0.033 1.55-0.217 1.75-0.55 0.133-0.233 0.15-0.867 0.05-1.9 0.434-0.167 0.95-0.283 1.55-0.35 0.433-0.133 0.667-0.583 0.7-1.35 0.067-1.1-0.683-1.9-2.25-2.4-1.6-0.267-2.4-0.417-2.4-0.45 0.367 0.033 0.65-0.083 0.85-0.35 0.2-0.233 0.3-0.533 0.3-0.9-0.033-0.7-0.45-1.25-1.25-1.65-0.667-0.333-1.483-0.533-2.45-0.6l0.15-0.249c0.333-1.1-1.183-1.883-4.55-2.35 0.5-0.6 0.85-1.083 1.05-1.45 2.533 0.733 4 0.367 4.4-1.1l0.1 0.35c0.3 0.233 0.733 0.216 1.3-0.05 0.5-0.2 0.833-0.467 1-0.8 0.034 0.267 0.117 0.45 0.25 0.55 0.067 0.033 0.25 0.083 0.55 0.15 0.967 0.1 1.45-0.633 1.45-2.2 0-0.434-0.117-1.483-0.35-3.15-0.1-0.367-0.167-0.633-0.2-0.8-0.067-0.267 0-0.55 0.2-0.85 0.133-0.167 0.45-0.466 0.95-0.9 0.367-0.3 0.633-0.7 0.8-1.2 0.233-0.767 0.35-1.867 0.35-3.3-2.733-2.267-4.183-2.833-4.35-1.7 0.1-0.867 0.95-0.767 2.55 0.3 1.033 0.7 2.25 1.65 3.65 2.85 0.2-1.367 0.617-1.75 1.25-1.15 0.633 0.566 1 1.367 1.1 2.4 0.167-0.667 0.517-0.934 1.05-0.8 0.167 0.034 0.317 0.1 0.45 0.2-0.067-0.033-0.133-0.067-0.2-0.1-0.133 0.267 0.017 0.483 0.45 0.65-0.3 0.333-0.633 0.9-1 1.7-0.8-0.067-1.25-0.1-1.35-0.1-0.6 0.067-0.8 0.317-0.6 0.75l0.75 0.05c-0.167 0.267-0.85 0.7-2.05 1.3-1.067 0.5-1.6 1-1.6 1.5 0.267 0.233 0.717 0.333 1.35 0.3 0.333-0.033 0.817-0.066 1.45-0.1-1.767 1.033-2.6 1.95-2.5 2.75 0.3 0.066 0.7 0.017 1.2-0.15 0.533-0.133 0.917-0.183 1.15-0.15-0.767 1.233-1.133 2.367-1.1 3.4 0.6 0.367 1.367 0.383 2.3 0.05-0.567 0.733-0.95 1.483-1.15 2.25-0.233 0.933-0.1 1.617 0.4 2.05 0.367 0.333 0.8 0.434 1.3 0.3 0.4-0.133 0.767-0.4 1.1-0.8-0.2 1.233 0 2 0.6 2.3 0.333 0.2 0.717 0.233 1.15 0.1 0.434-0.1 0.7-0.333 0.8-0.7 0 0.767 0.316 1.15 0.95 1.15 0.5 0 0.783-0.317 0.85-0.95v-1.55c0.367 0.867 0.65 1.45 0.85 1.75 0.467 0.7 1 0.95 1.6 0.75 0.4-0.133 0.6-0.583 0.6-1.35-0.066-0.867-0.1-1.433-0.1-1.7 0.267 0.033 0.833 0.2 1.7 0.5 0.767 0.2 1.283 0.117 1.55-0.25 0.2-0.267 0.233-0.717 0.1-1.35-0.2-0.9-0.3-1.383-0.3-1.45 0-1.433 0.1-2.35 0.3-2.75 0.1-0.233 0.333-0.533 0.7-0.9 0.433-0.433 0.7-0.733 0.8-0.9 0.3-0.733 0.583-1.267 0.85-1.6 0.133 0.133 0.233 0.45 0.3 0.95 0.066 0.433 0.183 0.7 0.35 0.8 0.467 0.267 0.75 0.083 0.85-0.55 0.033-0.133 0.05-0.6 0.05-1.4 0.367 0.367 0.9 0.617 1.6 0.75 0.733 0.167 1.284 0.1 1.65-0.2 0.667-0.5 0.833-1.15 0.5-1.95-0.233-0.633-0.684-1.2-1.35-1.7 1-0.3 1.816-1.317 2.45-3.05 0.667-1.833 0.45-2.967-0.65-3.4 0.233-0.467 0.4-0.85 0.5-1.15 0.167-0.533 0.184-0.934 0.05-1.2-0.133-0.233-0.567-0.333-1.3-0.3-0.767 0.1-1.25 0.133-1.45 0.1 0.767-1.6-0.05-2.434-2.45-2.5-0.067-0.5-0.117-0.867-0.15-1.1-0.1-0.434-0.217-0.8-0.35-1.1 0.467 0.567 0.75 0.383 0.85-0.55 0.1-0.934 0-1.6-0.3-2-0.733-0.967-1.85-1.417-3.35-1.35l0.1 0.95c-0.1-0.733-0.15-1.316-0.15-1.75-0.033-0.8 0.167-1.3 0.6-1.5 0.433-0.167 0.833-0.033 1.2 0.4 0.3 0.333 0.5 0.75 0.6 1.25 0.4-0.8 1.083-1.1 2.05-0.9 0.867 0.167 1.55 0.6 2.05 1.3 0.867-0.5 1.533 0.017 2 1.55 0.367 1.133 0.533 2.2 0.5 3.2 0.333-1.7 0.983-2.117 1.95-1.25 0.7 0.6 1.333 1.583 1.9 2.95l-0.55-1.15-0.4 0.55c-0.333 0.6-0.533 1.367-0.6 2.3-0.1 0.9-0.034 1.65 0.2 2.25 0.066 0.167 0.283 0.417 0.649 0.75 0.367 0.3 0.601 0.6 0.7 0.9v1.35l-0.8-0.15 0.75 0.75v0.5c0.033 1.133 0.066 2.4 0.1 3.8-0.133 1.067-0.717 2.267-1.75 3.6 1.2 0.4 1.884 0.867 2.05 1.4l-0.399 1.05h0.15c-0.333 0.533-0.949 1.066-1.85 1.6 1.333 0.367 2.116 0.7 2.35 1 0.233 0.3 0.2 0.983-0.1 2.05-0.7 1-1.05 1.483-1.05 1.45 0.1 0.633-0.084 1.15-0.55 1.55-0.167 0.267-0.484 0.533-0.95 0.8-0.5 0.3-0.817 0.567-0.95 0.8-0.1 0.133-0.1 0.433 0 0.9 0.067 0.467 0.033 0.767-0.1 0.9-0.367 0.367-0.983 0.55-1.85 0.55-0.966-0.066-1.65-0.083-2.05-0.05 0.067 0.2 0.05 0.533-0.05 1-0.067 0.467-0.083 0.783-0.05 0.95-0.667 0.2-1.25 0.017-1.75-0.55-0.4-0.433-0.633-0.983-0.7-1.65 0.1 1.3 0 2.617-0.3 3.95-0.133 0.5-0.533 1.75-1.2 3.75l-0.35 1c-0.267 0.733-0.6 1.184-1 1.35-0.4 0.167-1.3 0.25-2.7 0.25-1.233 0-2.183-0.05-2.85-0.149-1.1-0.167-1.966-0.534-2.6-1.101-0.2 1-0.867 1.767-2 2.3-1.2 0.534-2.2 0.4-3-0.399-0.534-0.5-0.733-1.417-0.6-2.75 0.133-1.534 0.083-2.534-0.15-3-1.1 0.733-1.95 1.216-2.55 1.45-0.3 1.333-0.7 2.183-1.2 2.55l-0.4 0.1-0.05 0.149c-0.4 0.166-0.883 0.184-1.45 0.05-0.9-0.167-1.4-0.25-1.5-0.25-0.066 0.4-0.25 1.733-0.55 4-0.433 1.967-1.083 2.767-1.95 2.4-0.133-0.567-0.15-1.267-0.05-2.101-0.133 0.967-0.483 2.066-1.05 3.3h-0.05c-0.767 1.634-1.683 2.684-2.75 3.151zm11-13.35c0.1-0.5 0.283-1.65 0.55-3.45-0.1 0.4-0.284 1-0.55 1.8-0.167 0.667-0.233 1.233-0.2 1.7l0.2-0.05zm-22.475-20.9c-0.054 0.013-0.096 0.063-0.125 0.15l0.15 0.15-0.2-0.15c0.059-0.088 0.117-0.138 0.175-0.15zm68.075-8.5c-0.467 0.1-0.983 0.417-1.55 0.95 0.2-0.233 0.333-0.367 0.399-0.4 0.368-0.3 0.751-0.483 1.151-0.55zm-5.25 35.05l0.05 0.351 0.3 0.1c0.233 0.1 0.767 0.233 1.601 0.4 0.467 0.199 1.1 0.517 1.899 0.949 0.7 0.267 1.384 0.184 2.051-0.25-2.034-0.166-3.65-0.583-4.851-1.25l0.05-0.05 1.15-0.6c0.2 0.033 0.884 0.033 2.05 0 0.8 0 1.334 0.133 1.601 0.399 0.199 0.2 0.267 0.733 0.199 1.601-0.066 1.033-0.1 1.6-0.1 1.7 0.967-0.167 1.434 0.183 1.4 1.05-0.034 1.233 0 1.916 0.1 2.05 0.233 0.333 0.616 0.467 1.15 0.4 0.533-0.101 0.899-0.067 1.1 0.1 0.434 0.366 0.634 0.7 0.6 1 0 0.5 0.034 0.866 0.101 1.1 0.066 0.2 0.066 0.483 0 0.851-0.033 0.366 0.017 0.649 0.149 0.85 0.167 0.267 0.667 0.601 1.5 1 0.767 0.367 1.217 0.834 1.351 1.4 0.366 1.5-0.417 2.333-2.351 2.5-2.666 0.2-4.133 0.399-4.399 0.6 1.467 1.533 1.833 2.967 1.1 4.3-0.733 0.233-1.7 0.334-2.899 0.301-1.467 0-2.45 0.033-2.95 0.1 0.3 1.934-0.384 2.95-2.05 3.05-1.7 0.101-2.483-0.684-2.351-2.35-1.233 0.7-2.316 1.133-3.25 1.3-1.133 0.2-2.267 0.05-3.399-0.45-1.367-0.566-2.134-1.333-2.301-2.3 0.034-1.233-0.05-2.3-0.25-3.2-1.667 0.467-2.816 0.566-3.45 0.3-0.7-0.267-1.267-1.133-1.7-2.6-0.333-0.033-0.784-0.017-1.35 0.05-0.633 0.066-1.083 0.101-1.35 0.101l-0.051-2.303c-0.633 0.267-1.367 0.417-2.2 0.45-1 0.066-1.683-0.1-2.05-0.5-0.434-0.467-0.467-1.1-0.1-1.899 0.3-0.767 0.75-1.25 1.35-1.45 0.733 0.733 1.583 1.033 2.55 0.899 1.033-0.166 1.333-0.833 0.9-2l2.35 0.45c-0.533 0.566-0.733 1.184-0.6 1.851 2.033 0.199 3.633 0.066 4.8-0.4-0.633 0.566-1.017 1.05-1.15 1.45 1.7 0.2 3.017-0.017 3.95-0.65-0.6 0.9-0.934 1.4-1 1.5-0.3 0.634-0.384 1.184-0.25 1.65 0.8 0.133 1.583 0.083 2.35-0.15 0.934-0.3 1.483-0.816 1.65-1.55-0.233 1.2-0.316 2.017-0.25 2.45 0.866 0.2 1.55 0.033 2.05-0.5 0.5-0.467 0.717-1.117 0.65-1.95 0.1 0.7 0.333 1.3 0.7 1.8 0.433 0.634 0.966 0.884 1.6 0.75 0.434-0.1 0.75-0.517 0.95-1.25 0.166-0.633 0.217-1.366 0.149-2.2 0.467 0.534 1.051 0.934 1.75 1.2 0.7 0.267 1.301 0.3 1.801 0.101 0.133-0.4 0.083-1.2-0.15-2.4-0.233-1.1-0.184-1.85 0.15-2.25 0.3 0.2 0.649 0.267 1.05 0.2 0.066-0.233 0.033-0.566-0.101-1-0.133-0.434-0.166-0.75-0.1-0.95 0.033-0.1 0.184-0.316 0.45-0.65 0.233-0.267 0.316-0.566 0.25-0.899l-2.75-2.5c-1.601-0.667-3-1.017-4.2-1.05 0.233-0.2 0.384-0.434 0.45-0.7l2.5-0.601 0.051 0.198zm22.95 21.5h0.05l-0.05 0.55v-0.55zm-64.75-38.45c0.7 1.1 1.033-0.033 1-3.4l-0.25 2.25-0.75 1.15zm2.65 2.65c0.8-0.1 1.25-0.7 1.35-1.8l-1.25 1-0.1 0.8zm-27 8.8c0.6 0.1 1.133-0.15 1.6-0.75-0.4-0.033-0.933 0.217-1.6 0.75zm42.6-9.35c-1.2 1.066-2.15 2.1-2.85 3.1-1.233 1.733-1.117 2.733 0.35 3 1.733 0.3 2.8-0.733 3.2-3.1 0.1-0.667 0.117-2.417 0.05-5.25l-0.75 2.25z" fill="#848958"/>
	<path d="m118.2 60.85c1.5-0.399 2.116-1.333 1.85-2.8l0.35-0.05c-0.101 0.4-0.25 1.017-0.45 1.85-0.267 0.634-0.767 1-1.5 1.101l-0.25-0.101zm2.25 3.85c-0.467-0.634-0.783-1.084-0.95-1.351-0.3-0.433-0.417-0.733-0.35-0.899 0.199-0.4 0.55-0.584 1.05-0.55 0.733 0.066 1.166 0.083 1.3 0.05 0.866-0.2 1.35-0.467 1.45-0.8v-4.95c-0.101 0.267-0.467 0.434-1.101 0.5 0.167-1.033 0.367-1.767 0.601-2.2-1 0-1.667 0.366-2 1.1-0.533 1.233-0.851 1.9-0.95 2-0.667 0.7-1.8 1.067-3.4 1.101-1.466 0.033-2.649-0.2-3.55-0.7-0.033 1.033-0.316 1.717-0.85 2.05-0.334 0.2-1.033 0.3-2.101 0.3-0.066-0.466-0.366-0.699-0.899-0.699-0.867 0.166-1.934 0.25-3.2 0.25-0.634-0.267-1.033-0.483-1.2-0.65-0.3-0.3-0.45-0.717-0.45-1.25-0.699 0.533-1.449 0.684-2.25 0.45-0.767-0.2-1.283-0.7-1.55-1.5 0.134 0.767 0.384 1.75 0.75 2.95-0.467 0-0.899 0.133-1.3 0.399 0.434 0.467 1.033 0.783 1.8 0.95l0.101 0.2c0.333 0.733 0.899 1.217 1.699 1.45 1 0.333 1.667 0.649 2 0.949 0.334 0.334 0.534 0.5 0.601 0.5l0.25 0.7c0.1 0.2 0.149 0.684 0.149 1.45 0.034 0.634 0.184 1.1 0.45 1.4 0.134 0.133 0.45 0.183 0.95 0.149 0.434-0.033 0.75 0.134 0.95 0.5 0.3 0.566 0.1 1.283-0.601 2.15-0.633 0.8-1.25 1.25-1.85 1.35 0.366 2.101-1.1 3.267-4.4 3.5l-0.3 0.8c-0.666 0.2-1.566 0.184-2.7-0.05-1.3-0.233-2.183-0.333-2.649-0.3-0.2 0.033-0.667 0.184-1.4 0.45-0.767 0.333-1.267 0.517-1.5 0.55-0.633-0.1-1.233-0.083-1.8 0.05-0.267 0.066-0.5 0.283-0.7 0.65-0.2 0.399-0.434 0.633-0.7 0.7-1.267 0.1-2.416 0.133-3.449 0.1-1.101-0.066-1.834-0.184-2.2-0.35-0.667-0.334-0.917-0.967-0.75-1.9-1.3 0.634-2.767 0.967-4.4 1-2 0-2.883-0.733-2.649-2.2-1.567-0.1-2.467-0.2-2.7-0.3-0.733-0.3-1-1.033-0.8-2.2-0.3-0.066-0.7-0.1-1.2-0.1l-1.2-0.05c0.033-1.067 0.017-1.867-0.05-2.4-0.867 0.033-1.517 0.033-1.95 0-0.767-0.033-1.367-0.2-1.8-0.5 0.167-0.767 0.333-1.25 0.5-1.45-0.667 0.101-1.217 0.05-1.65-0.149-0.5-0.267-0.7-0.717-0.6-1.351-1.633-0.066-2.65-0.2-3.05-0.399-0.6-0.267-1.217-0.983-1.85-2.15-0.7 1.566-0.533 3.167 0.5 4.8 0.934 1.533 2.233 2.584 3.9 3.15l-0.1 0.75c-0.067 0.033-0.317 0.05-0.75 0.05-0.3 0.033-0.533 0.134-0.7 0.3-0.233 0.2-0.35 0.517-0.35 0.95s-0.083 0.767-0.25 1c-0.5 0.634-1.216 0.967-2.15 1-0.967 0.066-1.333-0.384-1.1-1.35-1.367 0.6-3.25 0.683-5.65 0.25-0.066-0.733-0.033-1.267 0.1-1.601-0.4 0.9-1.933 1.066-4.6 0.5-2.767-0.533-3.883-1.45-3.35-2.75 0.7-0.133 2.733-0.1 6.1 0.101 2.964-0.133 4.247-1.15 3.847-3.05-0.467 0.733-1.4 1.101-2.8 1.101-1.333-0.033-2.367-0.351-3.1-0.95-0.4 0.5-1.1 0.8-2.1 0.9-0.933 0.1-1.733 0.017-2.4-0.25-0.333-0.167-0.717-0.5-1.15-1-0.434-0.5-0.75-0.784-0.95-0.851-1.167-0.166-1.917-0.3-2.25-0.399-0.5-0.134-0.783-0.834-0.85-2.101-0.833 1-1.95 1.733-3.35 2.2-1.433 0.5-2.133 0.15-2.1-1.05-0.233 1.066-1 2.017-2.3 2.85-1.554 0.959-2.288 0.751-2.2-0.625-0.149 1.577-1.366 1.902-3.65 0.976-2.333-1-2.9-2.117-1.7-3.351-0.967 0.4-1.867 0.617-2.7 0.65-0.967 0.066-1.683-0.15-2.15-0.65 0.467-0.633 0.817-1.116 1.05-1.45 0.367-0.6 0.583-1.133 0.65-1.6-0.2 0.033-0.517 0.017-0.95-0.05-0.467-0.066-0.783-0.084-0.95-0.05-0.1-0.634-0.133-1.101-0.1-1.4-0.233 0.866-0.684 1.517-1.35 1.95-0.767 0.434-1.55 0.383-2.35-0.15-0.467-0.333-0.75-0.816-0.85-1.45-0.033-0.3-0.033-0.883 0-1.75-0.733 0.233-1.333 0.384-1.8 0.45-0.833 0.134-1.417 0-1.75-0.399-0.167-0.2-0.217-0.584-0.15-1.15 0.133-0.7 0.216-1.2 0.25-1.5 0.367-0.934 0.85-1.616 1.45-2.05 0.6-0.4 1.2-0.45 1.8-0.15l0.2 0.101c0.033-0.567 0.067-1 0.1-1.301 0.067-0.5 0.2-0.899 0.4-1.199-0.533 0.399-1.017 0.399-1.45 0-0.4-0.367-0.55-0.867-0.45-1.5-0.233 0.166-0.517 0.25-0.85 0.25h-0.9c-0.267-0.967-0.1-1.834 0.5-2.601-0.6 0.434-1.233 0.517-1.9 0.25v-0.801c-0.633 0.533-1.75 0.65-3.35 0.35-0.1-1 0.633-1.966 2.2-2.899-1.667-1.034-2.4-1.767-2.2-2.2 0.333-0.633 1.133-0.683 2.4-0.15 0.467-0.767 0.733-1.184 0.8-1.25 0.267-0.333 0.683-0.667 1.25-1 0.833-0.5 1.417-0.783 1.75-0.85-0.1-0.533 0.283-1.033 1.15-1.5s1.533-0.55 2-0.25c-0.067-0.8-0.033-1.483 0.1-2.05 0.033 0.066 0.183 0.2 0.45 0.4 0.2 0.133 0.35 0.3 0.45 0.5-0.133-0.767 0.05-1.467 0.55-2.1 0.533-0.7 1.133-0.8 1.8-0.3-0.067-0.667 0.183-1.25 0.75-1.75-0.367-0.467-0.6-0.983-0.7-1.55 0.733 0.167 1.883 0.15 3.45-0.05-0.267 0.867-0.934 1.983-2 3.35-1.367 1.733-2.2 2.85-2.5 3.35 0.4 0.5 1.4 0.717 3 0.65 2.133-0.133 3.267-0.184 3.4-0.15-0.267 0.367-0.95 1.15-2.05 2.35-0.966 1.167-1.367 2.05-1.2 2.65 0.133 0.567 0.467 0.9 1 1-0.934 0.733-1.767 1.684-2.5 2.851-0.8 1.233-1.117 2.133-0.95 2.699 0.167 0.667 1.1 1.017 2.8 1.051 1.533 0 2.6-0.167 3.2-0.5-0.833 0.666-1.55 1.433-2.15 2.3-0.7 0.967-1.133 1.934-1.3 2.899 1.033 0.334 2.216 0.417 3.55 0.25 1.367-0.133 2.483-0.5 3.35-1.1-0.233 0.267-1.05 1.1-2.45 2.5-1.2 1.4-1.566 2.417-1.1 3.05 0.333 0.467 1.15 0.684 2.45 0.65 1-0.066 1.833-0.217 2.5-0.45 0.967-0.333 1.833-0.866 2.6-1.6 0.566-0.567 1.183-1.367 1.85-2.4l0.3 1.149c0.6 0.199 1.233 0.25 1.9 0.149l0.05 0.65v0.6c0.267 0.101 0.733 0.117 1.4 0.05 0.8-0.066 1.316-0.083 1.55-0.05-0.767 0.233-1.7 0.316-2.8 0.25-1.033-0.033-1.783-0.166-2.25-0.399 0.2 0.233 0.25 0.5 0.15 0.8-0.733 0.434-1.767 0.616-3.1 0.55 0.7 0.134 1.85 0.467 3.45 1 1.4 0.3 2.3 0.017 2.7-0.85 0.833 0.833 1.967 1.25 3.4 1.25 0.966 1.1 1.95 1.5 2.95 1.199 0.5-0.133 0.9-0.399 1.2-0.8 0.4 0.334 0.95 0.601 1.65 0.8 0.6 0.767 1.383 1.233 2.35 1.4 1 0.167 2.017-0.05 3.05-0.65 0.1-0.633 0.4-1.083 0.9-1.35h0.1c1.367 0.634 2.967 0.884 4.8 0.75 2-0.1 3.033-0.65 3.1-1.65 0.1-0.933-0.517-1.6-1.85-2-0.767-0.267-2.117-0.483-4.05-0.649 0.033-1.967-0.017-3.417-0.15-4.351-0.2-1.666-0.883-2.383-2.05-2.149-0.867-1.767-1.617-3.017-2.25-3.75-1.133-1.367-2.383-1.95-3.75-1.75 0.5-0.367 0.9-1.217 1.2-2.55 0.6-0.233 1.45-0.717 2.55-1.45 0.233 0.466 0.283 1.466 0.15 3-0.133 1.333 0.066 2.25 0.6 2.75 0.8 0.8 1.8 0.934 3 0.399 1.133-0.533 1.8-1.3 2-2.3 0.633 0.566 1.5 0.934 2.6 1.101 0.667 0.1 1.617 0.149 2.85 0.149 1.4 0 2.3-0.083 2.7-0.25 0.4-0.166 0.733-0.616 1-1.35l0.35-1c0.667-2 1.066-3.25 1.2-3.75 0.3-1.333 0.4-2.65 0.3-3.95 0.066 0.667 0.3 1.217 0.7 1.65 0.5 0.567 1.083 0.75 1.75 0.55-0.033-0.167-0.017-0.483 0.05-0.95 0.1-0.467 0.117-0.8 0.05-1 0.4-0.033 1.083-0.017 2.05 0.05 0.867 0 1.483-0.183 1.85-0.55 0.133-0.133 0.167-0.433 0.1-0.9-0.1-0.467-0.1-0.767 0-0.9 0.133-0.233 0.45-0.5 0.95-0.8 0.466-0.267 0.783-0.533 0.95-0.8 0.466-0.4 0.649-0.917 0.55-1.55 0 0.034 0.35-0.45 1.05-1.45 0.3-1.067 0.333-1.75 0.1-2.05s-1.017-0.633-2.35-1c0.9-0.533 1.517-1.066 1.85-1.6 0.667 0.066 1.217 0.283 1.65 0.65l0.7 1.35c0.2 0.2 0.333 0.367 0.399 0.5 0.067 0.6-0.066 1.083-0.399 1.45-0.4 0.4-1.017 0.583-1.851 0.55 0.567 0.167 0.967 0.483 1.2 0.95 0.267 0.467 0.3 0.967 0.101 1.5-0.867 0.133-1.467 0.184-1.801 0.15 0.7 0.6 1.017 1.333 0.95 2.2l-0.2 0.15 0.15 0.3v0.15c-0.167 0.9-0.5 1.433-1 1.6l-1.4 0.1c-0.466-0.033-0.866-0.066-1.2-0.1 0.4 0.1 0.717 0.4 0.95 0.9 0.333 0.633 0.383 1.267 0.15 1.9v0.1c-0.733-0.067-1.183 0-1.35 0.2-0.2 0.167-0.3 0.483-0.3 0.95-0.5 0-0.9 0.033-1.2 0.1 0.267 0.8 0.35 1.566 0.25 2.3-0.367 0.033-1.467 0.05-3.3 0.05 0.433 0.333 0.617 0.649 0.55 0.95-0.533-0.267-0.9-0.75-1.1-1.45-0.066 0.333-0.1 1.083-0.1 2.25-0.733 0.166-1.7 0.25-2.9 0.25 0.833 0.1 1.6 0.416 2.3 0.95-0.8 0.1-1.233 0.133-1.3 0.1 0 2.2-1.35 2.983-4.05 2.35 0.033-0.233-0.017-0.449-0.15-0.649-0.1 0.133-0.283 0.616-0.55 1.45-0.233 0.633-0.483 1.05-0.75 1.25-0.4 0.3-1.216 0.383-2.45 0.25-1.033-0.101-1.867-0.267-2.5-0.5 0.1 0.233 0.267 0.983 0.5 2.25 0.3 0.033 0.85 0.017 1.65-0.051 0.733-0.066 1.267-0.05 1.6 0.051 0.367 0.1 0.85 0.366 1.45 0.8 0.534 0.366 1.067 0.6 1.6 0.7 1.467 0.267 2.65-0.217 3.55-1.45 1.066-1.4 2.15-2.15 3.25-2.25-0.567 1.899 0.1 2.733 2 2.5 1.933-0.233 3.017-1.033 3.25-2.4 0.133 0.467 0.434 0.667 0.899 0.601 0.434-0.067 0.817-0.301 1.15-0.7 0.3-0.334 0.434-0.867 0.4-1.601-0.034-0.833 0.017-1.383 0.149-1.649 0.101-0.233 0.334-0.533 0.7-0.9 0.366-0.434 0.6-0.75 0.7-0.95 0.434 0.367 1.217 0.483 2.35 0.351 1.4-0.2 2.267-0.267 2.601-0.2 0.733 0.9 1.3 1.366 1.699 1.4 0.2 0.267 0.4 0.433 0.601 0.5 0.3 0.1 0.816 0.083 1.55-0.051 0.066 0.601 0.134 1.017 0.2 1.25l-2.5 0.601c-0.066 0.267-0.217 0.5-0.45 0.7-0.467-0.034-1 0-1.6 0.1-0.267 0-0.767 0.217-1.5 0.65-0.794 0.43-0.886 0.696-0.275 0.8-1.155-0.165-2.313-0.049-3.475 0.35-1.233 0.367-2.233 0.967-3 1.8-0.333-0.633-0.95-0.883-1.851-0.75-0.867 0.167-1.433 0.567-1.7 1.2-0.133 0.367-0.184 0.834-0.15 1.4 0.033 0.633 0.183 1.083 0.45 1.35-0.233 0.101-0.45 0.267-0.65 0.5l-2.347-0.452c0.434 1.167 0.133 1.834-0.9 2-0.967 0.134-1.817-0.166-2.55-0.899-0.6 0.2-1.05 0.684-1.35 1.45-0.367 0.8-0.333 1.433 0.1 1.899 0.367 0.4 1.05 0.566 2.05 0.5 0.833-0.033 1.567-0.184 2.2-0.45l0.05 2.3c0.267 0 0.717-0.034 1.35-0.101 0.566-0.066 1.017-0.083 1.35-0.05 0.433 1.467 1 2.333 1.7 2.6 0.633 0.267 1.783 0.167 3.45-0.3 0.2 0.9 0.284 1.967 0.25 3.2 0.167 0.967 0.934 1.733 2.301 2.3 1.133 0.5 2.267 0.65 3.399 0.45 0.934-0.167 2.017-0.6 3.25-1.3-0.133 1.666 0.65 2.45 2.351 2.35 1.666-0.1 2.35-1.116 2.05-3.05 0.5-0.066 1.483-0.1 2.95-0.1 1.199 0.033 2.166-0.067 2.899-0.301 0.733-1.333 0.367-2.767-1.1-4.3 0.267-0.2 1.733-0.399 4.399-0.6 1.934-0.167 2.717-1 2.351-2.5-0.134-0.566-0.584-1.033-1.351-1.4-0.833-0.399-1.333-0.733-1.5-1-0.133-0.2-0.183-0.483-0.149-0.85 0.066-0.367 0.066-0.65 0-0.851-0.066-0.233-0.101-0.6-0.101-1.1 0.034-0.3-0.166-0.634-0.6-1-0.2-0.167-0.566-0.2-1.1-0.1-0.534 0.066-0.917-0.067-1.15-0.4-0.1-0.134-0.134-0.816-0.1-2.05 0.033-0.867-0.434-1.217-1.4-1.05 0-0.101 0.033-0.667 0.1-1.7 0.067-0.867 0-1.4-0.199-1.601-0.267-0.263-0.801-0.396-1.601-0.396-1.166 0.033-1.85 0.033-2.05 0 1.3-0.5 2.033-0.816 2.2-0.95 0.566-0.467 0.733-1.283 0.5-2.45-0.134-0.666-0.483-1.217-1.05-1.65-0.634-0.5-1.034-1-1.2-1.5 0.5-0.8 0.85-1.4 1.05-1.8 0.333-0.667 0.45-1.267 0.35-1.8l-0.449 0.2 0.85-1.25c0.5-0.833 0.8-1.883 0.9-3.15 0.066-0.7 0.083-1.817 0.05-3.35 1.233-0.767 2.033-1.783 2.399-3.05-0.033 0.167-0.216 0.883-0.55 2.15-0.2 0.867-0.283 1.566-0.25 2.1 0.033 0.267 0.117 0.6 0.25 1 0.134 0.367 0.2 0.65 0.2 0.85 0 0.867-0.25 2.05-0.75 3.55-0.7 1.967-1.083 3.133-1.15 3.5 0.634 0.433 1.284 0.333 1.95-0.3 0.233 0.367 0.351 1.467 0.351 3.3 0 1.534 0.35 2.483 1.05 2.851 0.267 0.133 0.684 0.166 1.25 0.1 0.633-0.1 1.066-0.116 1.3-0.05 0.533 0.833 1.316 1.333 2.35 1.5 1.067 0.434 2.467 0.616 4.2 0.55 1 0 2.434-0.066 4.3-0.2 0.134 0 0.65 0.051 1.551 0.15 0.633 0.066 1.133 0.017 1.5-0.15 0.267-1.966 0.133-3.383-0.4-4.25 0.4 0.5 1.033 0.601 1.9 0.301 0.267-1.034 0.116-1.967-0.45-2.8 0.5 0.3 1.017 0.45 1.55 0.45 0.6 0.034 1.066-0.133 1.4-0.5 0.233-0.233 0.267-0.733 0.1-1.5-0.134-0.833-0.167-1.35-0.1-1.55 0.233-0.467 0.416-0.733 0.55-0.8 0.566-0.167 0.899-0.284 1-0.35 1-0.467 1.533-0.75 1.6-0.85 0.033-0.267 0.167-0.767 0.4-1.5 0.366-1.333 0.55-2.033 0.55-2.1 0.1-0.867-0.2-1.383-0.9-1.55 0.233-0.033 0.667-0.184 1.301-0.45 0.199-0.667 0.199-1.3 0-1.9-0.267-0.633-0.733-1.017-1.4-1.15 0.1-1.5 0.25-2.467 0.45-2.9 0.434-1.067 0.767-1.65 1-1.75 0.233-0.067 1-0.15 2.3-0.25l0.45-0.05c0.033 0.2 0.033 0.383 0 0.55 0.866-0.534 1.633-0.767 2.3-0.7-0.033 0.2 0.017 0.583 0.15 1.15 0.666-0.233 1.233-0.483 1.699-0.75 0.134 0.5 0.2 1.25 0.2 2.25 0.267 0.067 0.934 0.05 2-0.05 0.967-0.1 1.601-0.067 1.9 0.1 0.5-0.1 0.883 0.05 1.149 0.45 0.067 0.467-0.133 0.817-0.6 1.05-0.566 0.4-0.7 0.867-0.4 1.4 0.4 0.566 0.584 1.167 0.551 1.8 0.233 0.633 0.399 1.033 0.5 1.2 0.166 0.3 0.483 0.617 0.949 0.95-0.066-0.8 0.233-1.433 0.9-1.9 0.833-0.433 1.434-0.833 1.8-1.2 0.5-0.5 0.75-0.767 0.75-0.8 0.066-0.4 0.15-0.717 0.25-0.95l0.15-1.05c0.1-0.533 0.283-0.833 0.55-0.9 0.467-0.1 0.967 0.85 1.5 2.85s0.35 3.233-0.55 3.7c0.3 0.5 0.649 0.867 1.05 1.1 0.7-0.6 1.434-1.033 2.2-1.3 1.033-0.367 1.816-0.3 2.35 0.2-0.233 0.567-0.566 1.05-1 1.45 0.334 0.167 1.533 0.117 3.601-0.15 1.699-0.2 2.716 0.133 3.05 1-0.4 0.267-0.983 0.467-1.75 0.6-0.934 0.133-1.566 0.267-1.9 0.4 0.2 0.066 0.367 0.133 0.5 0.2l0.2 0.05c0.634 0.267 1.033 0.5 1.2 0.7l-0.351 0.05c-3.199 0.633-6.283 1.45-9.25 2.45-0.366-0.367-0.866-0.5-1.5-0.4-0.633 0.1-1.116 0.4-1.449 0.9-0.034-0.633-0.034-1.083 0-1.35-0.7 0.267-1.284 0.65-1.75 1.15-0.233-0.4-0.534-0.717-0.9-0.95-0.434-0.233-0.833-0.3-1.2-0.2 0.033-1.733-0.283-2.9-0.95-3.5-0.666-0.633-1.883-0.767-3.649-0.4-0.033 0.133-0.05 0.25-0.05 0.35-0.167-0.667-0.45-1.183-0.851-1.55-0.566-0.5-1.25-0.617-2.05-0.35-0.033 0.4-0.05 1.133-0.05 2.2 0.033 0.933 0 1.65-0.101 2.15l-0.45-1.152c-0.233 1.5 0.083 2.95 0.949 4.35 0.733 1.233 1.801 2.3 3.2 3.2-0.566-0.3-1.149-0.417-1.75-0.35-0.7 0.1-1.166 0.434-1.399 1-0.233 0.5-0.134 1.05 0.3 1.649-0.167 0.066-0.233 0.184-0.2 0.351 0.066 0.366 0.083 0.666 0.05 0.899 0 0.134 0.084 0.5 0.25 1.101 0.2 0.666 0.3 1.066 0.3 1.199-0.199 0.267-0.25 0.551-0.149 0.851 0 0.8 0.017 2.1 0.05 3.899-0.066 1.534-0.45 2.684-1.15 3.45-0.166 0.2-0.5 0.55-1 1.05-0.366 0.367-0.649 0.717-0.85 1.051-0.233 0.399-0.5 0.933-0.8 1.6-0.3 0.434-0.867 0.616-1.7 0.55 0.13 1.033-0.55 1.584-2.05 1.65zm-42.95-49.2v-1.35c-0.1-0.3-0.333-0.6-0.7-0.9-0.366-0.333-0.583-0.583-0.649-0.75-0.234-0.6-0.3-1.35-0.2-2.25 0.066-0.933 0.267-1.7 0.6-2.3l0.4-0.55 0.55 1.15 0.35-0.1 0.099-0.55c0.066 0.033 0.217 0.067 0.45 0.1 0.166 0.033 0.333 0.1 0.5 0.2 0.866-1.4 1.75-1.967 2.649-1.7 0.167 1.767 0.167 3.567 0 5.4 0.434-0.867 1.101-1.283 2-1.25 0.5 0.833 0.584 1.95 0.25 3.35 0.334 0 0.851-0.05 1.55-0.15 0.601-0.033 1.084 0.033 1.45 0.2 0.2 1.067-0.083 2.15-0.85 3.25 0.3 0.1 0.649 0.117 1.05 0.05 0.866 0.1 1.05 1.1 0.55 3-0.3 1.1-0.95 2.967-1.95 5.6-0.433-0.4-0.949-0.617-1.55-0.65 0.9-1.833 1.316-3.15 1.25-3.95-0.066-1.033-0.8-2.15-2.2-3.35-0.933-0.8-1.833-1.383-2.699-1.75-0.733-0.3-1.7-0.55-2.9-0.75zm16.95 16.5c-0.033 1.4-0.25 2.35-0.65 2.85-0.333 0.433-1.25 0.967-2.75 1.6-1.2 0.767-2.166 1.316-2.899 1.65-1.301 0.633-2.233 0.583-2.801-0.15 0.601-0.367 1.017-0.633 1.25-0.8 0.4-0.233 0.7-0.667 0.9-1.3 0.134-0.533 0.184-1 0.15-1.4 0.5-0.7 0.883-1.217 1.149-1.55 0.2 0.667 0.25 1.367 0.15 2.1 0.967-0.2 1.883-0.583 2.75-1.15 0.899-0.667 1.5-1.417 1.8-2.25-0.066 0.333 0.066 0.583 0.4 0.75l0.551-0.35zm-8.2-0.05l-0.65-0.75c0.167-0.167 0.334-0.417 0.5-0.75h0.3c0.034 0.333-0.016 0.833-0.15 1.5zm-5.9-10.25c-0.199-0.267-0.5-0.517-0.899-0.75l-1.601 4.45c-0.166-0.533-0.85-1-2.05-1.4 1.033-1.333 1.617-2.533 1.75-3.6-0.033-1.4-0.066-2.667-0.1-3.8v-0.5c0.733 0.8 1.366 1.667 1.899 2.6 0.668 1.167 1.001 2.167 1.001 3zm-31.7 22.7l-0.2 0.05c-0.034-0.467 0.033-1.034 0.2-1.7 0.267-0.8 0.45-1.4 0.55-1.8-0.267 1.8-0.45 2.95-0.55 3.45zm-8.2 10.2c0.566-1.233 0.917-2.333 1.05-3.3-0.1 0.834-0.083 1.533 0.05 2.101 0.867 0.366 1.517-0.434 1.95-2.4 0.3-2.267 0.483-3.6 0.55-4 0.1 0 0.6 0.083 1.5 0.25 0.567 0.134 1.05 0.116 1.45-0.05-0.1 0.233-0.117 0.483-0.05 0.75l-2.5 6v0.55c-0.5 0.333-1.184 0.533-2.05 0.6-0.9 0.033-1.55-0.134-1.95-0.501zm-17.6-10.05c0.667-0.533 1.2-0.783 1.6-0.75-0.467 0.6-1 0.85-1.6 0.75zm14.8 13.2c1.067-0.467 1.983-1.517 2.75-3.15 0.3 1.634 0.167 2.65-0.4 3.051-0.633 0.566-1.417 0.599-2.35 0.099zm26.85 14.9v-0.7c0.167 0.1 0.35 0.149 0.55 0.149-0.133 0.234-0.317 0.418-0.55 0.551z" fill="#6D7247"/>
	<path d="m121 65.65l0.7-0.2-0.9-0.15-0.35-0.6c1.5-0.066 2.184-0.617 2.05-1.65 0.833 0.066 1.4-0.116 1.7-0.55 0.3-0.667 0.566-1.2 0.8-1.6 0.2-0.334 0.483-0.684 0.85-1.051 0.5-0.5 0.834-0.85 1-1.05 0.7-0.767 1.084-1.916 1.15-3.45-0.033-1.8-0.05-3.1-0.05-3.899-0.101-0.3-0.05-0.584 0.149-0.851 0-0.133-0.1-0.533-0.3-1.199-0.166-0.601-0.25-0.967-0.25-1.101 0.033-0.233 0.017-0.533-0.05-0.899-0.033-0.167 0.033-0.284 0.2-0.351-0.434-0.6-0.533-1.149-0.3-1.649 0.233-0.567 0.699-0.9 1.399-1 0.601-0.066 1.184 0.05 1.75 0.35-1.399-0.9-2.467-1.967-3.2-3.2-0.866-1.4-1.183-2.85-0.949-4.35l0.449 1.15c0.101-0.5 0.134-1.217 0.101-2.15 0-1.067 0.017-1.8 0.05-2.2 0.8-0.267 1.483-0.15 2.05 0.35 0.4 0.367 0.684 0.883 0.851 1.55 0-0.1 0.017-0.217 0.05-0.35 1.767-0.367 2.983-0.233 3.649 0.4 0.667 0.6 0.983 1.767 0.95 3.5 0.367-0.1 0.767-0.034 1.2 0.2 0.366 0.233 0.667 0.55 0.9 0.95 0.466-0.5 1.05-0.883 1.75-1.15-0.034 0.267-0.034 0.716 0 1.35 0.333-0.5 0.816-0.8 1.449-0.9 0.634-0.1 1.134 0.033 1.5 0.4 2.967-1 6.051-1.816 9.25-2.45l0.351-0.05c0.066 0.067 0.116 0.117 0.149 0.15 0.067 0.2 0.051 0.433-0.05 0.7-0.1 0.267-0.483 0.434-1.149 0.5-0.733 0.1-1.167 0.217-1.301 0.35 0.801 0.333 1.367 0.833 1.7 1.5-0.6 0.333-1.434 0.5-2.5 0.5-1.233-0.067-2.149-0.1-2.75-0.1 0.434 0.1 0.717 0.3 0.851 0.6 0.267 0.5 0.416 0.767 0.449 0.8 0.233 0.267 0.7 0.767 1.4 1.5 0.634 0.667 0.983 1.233 1.05 1.7-0.7 0.134-1.7 0.134-3 0 0.367 0.066 0.65 0.25 0.851 0.55 0.1 0.134 0.183 0.316 0.25 0.55 0 0.034 0.017 0.067 0.05 0.101v0.399c0 0.367-0.066 0.801-0.2 1.301-0.934-0.167-1.583-0.634-1.95-1.4-0.934 0.366-1.434 1.417-1.5 3.15-0.033 0.966 0.017 2.267 0.15 3.899-0.033 1.233-0.15 1.983-0.351 2.25-0.199 0.267-0.899 0.601-2.1 1 0.167-1.3-0.316-1.95-1.45-1.95 0.033-0.166 0.017-0.466-0.05-0.899-0.066-0.467-0.1-0.767-0.1-0.9-1.601 0.101-2.884 0.15-3.851 0.15-1.8 0-2.816-0.434-3.05-1.3 0.134 1.166 0.55 3.949 1.25 8.35 0.366 3.9-0.033 6.116-1.2 6.65-0.033-1.267-0.083-2.217-0.149-2.851-0.467 0.733-1.217 1.4-2.25 2-0.567 0.334-1.434 0.8-2.601 1.4 0.033 0.333-0.066 0.649-0.3 0.95-0.467 0.1-0.9 0.133-1.3 0.1-0.3 0.1-0.767-0.033-1.4-0.4 0.167 1.134-0.434 1.817-1.8 2.051-1.267 0.233-2.35 0.033-3.25-0.601v-0.1c-0.733-1.033-1.3-1.733-1.7-2.101 0.4-0.166 1.05-0.383 1.95-0.649 0.733-0.267 1.167-0.684 1.3-1.25 0.07-0.2 0.05-0.467-0.05-0.8zm-9 5.9c0.934 0.533 1.634 1.783 2.1 3.75-0.433 0.533-0.916 0.783-1.449 0.75-0.4-1.633-0.634-2.95-0.7-3.95-0.101 1.834-0.566 3.551-1.4 5.15-0.967 1.866-2.133 2.934-3.5 3.2-0.434-2.733-0.833-4.851-1.2-6.351-0.267 0.4-0.383 1.067-0.35 2 0.033 0.867-0.15 1.5-0.55 1.9-0.533 0.566-1.5 0.8-2.9 0.7-1.366-0.101-2.233-0.467-2.6-1.101 0.233 1.067-0.384 1.684-1.851 1.851-1.733 0-2.816 0.066-3.25 0.2-1.333 0.533-2.267 0.866-2.8 1-0.899 0.233-1.916 0.183-3.05-0.15-0.066 0.767-0.517 1.25-1.35 1.45-0.767 0.166-1.467 0.017-2.101-0.45-0.066 0.634-0.3 1.033-0.7 1.2-0.166 0.1-0.666 0.2-1.5 0.3-0.933 0.066-1.733 0.033-2.399-0.1-0.467-0.334-0.634-0.784-0.5-1.351 0.1-0.434-0.033-0.783-0.4-1.05-0.566-0.1-1.233-0.116-2-0.05-1.1-0.4-1.767-0.617-2-0.65-0.2-0.033-0.55 0-1.05 0.101-0.499 0.101-0.882 0.134-1.149 0.101-0.7-0.066-1.133-0.2-1.3-0.4-0.333-0.399-0.533-0.616-0.6-0.649 0.066-0.4-0.083-0.7-0.45-0.9-0.3-0.133-0.65-0.166-1.05-0.1l-1.4-0.15c0.233-1.399-0.066-2.05-0.9-1.95-1.566 0.167-2.417 0.217-2.55 0.15 0.433 2.3 0.517 4.066 0.25 5.3-1.033 0.367-2.017 0.45-2.95 0.25-1.1-0.267-1.75-0.916-1.95-1.95 0.167 1.034-0.55 1.584-2.15 1.65s-2.583-0.3-2.95-1.1c-0.8 0.399-2.083 0.483-3.85 0.25-0.1-0.667-0.133-1.117-0.1-1.351-0.6-0.033-1.217-0.166-1.85-0.399-0.7-0.267-1.267-0.467-1.7-0.601-1.2-0.1-2.033-0.217-2.5-0.35-0.767-0.2-1.083-0.884-0.95-2.05-0.033 0-0.533-0.084-1.5-0.25-0.533-0.067-0.917-0.2-1.15-0.4 0.267 0.833 0.35 1.467 0.25 1.9-1.367 0.267-3.183 0.133-5.45-0.4-0.333 1.366-1.75 1.684-4.25 0.95-2.433-0.7-3.867-1.65-4.3-2.851-1.033 0.434-2.2 0.534-3.5 0.301 0.033-0.4 0.067-0.7 0.1-0.9 0.066-0.333 0.233-0.616 0.5-0.85-1 0.399-2.033 0.466-3.1 0.199v-0.049l0.4-0.25-0.45 0.05-0.05-0.55c-0.867-0.066-1.5-0.1-1.9-0.1 0.467-0.434 0.8-0.783 1-1.05 0-0.034 0.017-0.067 0.05-0.101l-0.6-0.1c0.2-0.101 0.417-0.184 0.65-0.25l0.65-0.101c-0.567-0.166-1.05-0.366-1.45-0.6l0.15-0.4-0.45 0.152c-0.4-0.333-0.6-0.816-0.6-1.45-0.2 0.033-0.5 0-0.9-0.1-0.433-0.101-0.733-0.15-0.9-0.15 0.033-0.1 0.066-0.383 0.1-0.85 0.033-0.4 0.133-0.7 0.3-0.9-1-0.066-2.033-0.283-3.1-0.649-1.233-0.467-2.183-0.817-2.85-1.051-0.133-0.333-0.117-0.649 0.05-0.949 0.566 0 0.917-0.017 1.05-0.051-0.433-0.433-0.783-0.416-1.05 0.051-1.967-0.101-3.817-0.434-5.55-1-2.1-0.667-2.466-1.317-1.1-1.95l-0.7-0.5 0.05-0.151v-0.25c0.434 0.033 0.883 0.217 1.35 0.55 0.7 0.467 1.117 0.733 1.25 0.801 0-0.301 0.083-0.584 0.25-0.851 0.5-0.066 1.033 0.167 1.6 0.7 0.633 0.634 1.1 1 1.4 1.1 0.233-0.733 0.517-1.283 0.85-1.649l-0.05-0.05c-0.267-0.434-0.4-0.983-0.4-1.65s0.133-1.333 0.4-2c-0.034 0.3-0.117 0.8-0.25 1.5-0.067 0.566-0.017 0.95 0.15 1.15 0.333 0.399 0.917 0.533 1.75 0.399 0.467-0.066 1.066-0.217 1.8-0.45-0.033 0.867-0.033 1.45 0 1.75 0.1 0.634 0.383 1.117 0.85 1.45 0.8 0.533 1.583 0.584 2.35 0.15 0.667-0.434 1.117-1.084 1.35-1.95-0.034 0.3 0 0.767 0.1 1.4 0.167-0.034 0.483-0.017 0.95 0.05 0.433 0.066 0.75 0.083 0.95 0.05-0.067 0.467-0.284 1-0.65 1.6-0.233 0.334-0.583 0.817-1.05 1.45 0.467 0.5 1.183 0.717 2.15 0.65 0.833-0.033 1.733-0.25 2.7-0.65-1.2 1.233-0.633 2.351 1.7 3.351 2.285 0.927 3.501 0.602 3.65-0.976-0.088 1.376 0.646 1.584 2.2 0.625 1.3-0.833 2.067-1.783 2.3-2.85-0.034 1.2 0.667 1.55 2.1 1.05 1.4-0.467 2.517-1.2 3.35-2.2 0.067 1.267 0.35 1.967 0.85 2.101 0.333 0.1 1.083 0.233 2.25 0.399 0.2 0.066 0.517 0.351 0.95 0.851s0.816 0.833 1.15 1c0.667 0.267 1.467 0.35 2.4 0.25 1-0.101 1.7-0.4 2.1-0.9 0.733 0.6 1.767 0.917 3.1 0.95 1.4 0 2.333-0.367 2.8-1.101 0.4 1.9-0.883 2.917-3.85 3.051-3.367-0.2-5.4-0.233-6.1-0.101-0.533 1.3 0.583 2.217 3.35 2.75 2.667 0.566 4.2 0.4 4.6-0.5-0.133 0.334-0.167 0.867-0.1 1.601 2.4 0.433 4.283 0.35 5.65-0.25-0.233 0.966 0.133 1.416 1.1 1.35 0.934-0.033 1.65-0.366 2.15-1 0.167-0.233 0.25-0.566 0.25-1s0.117-0.75 0.35-0.95c0.167-0.166 0.4-0.267 0.7-0.3 0.433 0 0.683-0.017 0.75-0.05-0.167 1.866 0.05 2.95 0.65 3.25l0.1 0.049c-0.333-1.566-0.533-2.684-0.6-3.35 0.233-0.134 0.417-0.317 0.55-0.551-0.2 0-0.383-0.05-0.55-0.149l-0.05-0.4v0.4c-1.667-0.566-2.967-1.617-3.9-3.15-1.033-1.633-1.2-3.233-0.5-4.8 0.633 1.167 1.25 1.884 1.85 2.15 0.4 0.199 1.417 0.333 3.05 0.399-0.1 0.634 0.1 1.084 0.6 1.351 0.434 0.199 0.983 0.25 1.65 0.149-0.167 0.2-0.333 0.684-0.5 1.45 0.433 0.3 1.033 0.467 1.8 0.5 0.433 0.033 1.083 0.033 1.95 0 0.066 0.533 0.083 1.333 0.05 2.4l1.2 0.05c0.5 0 0.9 0.033 1.2 0.1-0.2 1.167 0.067 1.9 0.8 2.2 0.233 0.1 1.133 0.2 2.7 0.3-0.233 1.467 0.649 2.2 2.649 2.2 1.634-0.033 3.101-0.366 4.4-1-0.167 0.934 0.083 1.566 0.75 1.9 0.366 0.166 1.1 0.283 2.2 0.35 1.033 0.033 2.183 0 3.449-0.1 0.267-0.067 0.5-0.301 0.7-0.7 0.2-0.367 0.434-0.584 0.7-0.65 0.566-0.133 1.167-0.149 1.8-0.05 0.233-0.033 0.733-0.217 1.5-0.55 0.733-0.267 1.2-0.417 1.4-0.45 0.467-0.033 1.35 0.066 2.649 0.3 1.134 0.233 2.034 0.25 2.7 0.05l0.3-0.8c3.301-0.233 4.767-1.399 4.4-3.5 0.6-0.1 1.217-0.55 1.85-1.35 0.7-0.867 0.9-1.584 0.601-2.15-0.2-0.366-0.517-0.533-0.95-0.5-0.5 0.033-0.816-0.017-0.95-0.149-0.267-0.301-0.416-0.767-0.45-1.4 0-0.767-0.05-1.25-0.149-1.45l-0.25-0.7c-0.066 0-0.267-0.166-0.601-0.5-0.333-0.3-1-0.616-2-0.949-0.8-0.233-1.366-0.717-1.699-1.45l-0.101-0.2c0.4 0.1 1.017 0.184 1.851 0.25 0.399 0.434 0.983 1.1 1.75 2 0.699 0.667 1.333 1.017 1.899 1.05l0.15 0.101c0.066 0.6-0.017 1.383-0.25 2.35 0.366 0.233 1.116 0.35 2.25 0.35 1 0 1.649 0.217 1.95 0.65 0.3 0.4 0.35 1.05 0.149 1.95-0.165 0.895-0.415 1.494-0.75 1.8 0.536-0.466 1.086-0.532 1.65-0.2v0.55l0.05-0.552zm-70.55-9.65c1.167 0 2.283-0.267 3.35-0.801 0.1 0.4 0.367 0.801 0.8 1.2-0.3 0.4-0.7 0.667-1.2 0.8-1 0.301-1.983-0.099-2.95-1.199zm5.8 1.2c1.2 0.334 2.333 0.351 3.4 0.051 1.167-0.301 1.767-0.867 1.8-1.7 0.1 0.366 0.5 0.717 1.2 1.05h-0.1c-0.5 0.267-0.8 0.717-0.9 1.35-1.033 0.601-2.05 0.817-3.05 0.65-0.967-0.168-1.75-0.635-2.35-1.401zm40.4-28.65c0.033 0.4-0.017 0.867-0.15 1.4-0.2 0.633-0.5 1.066-0.9 1.3-0.233 0.167-0.649 0.434-1.25 0.8 0.567 0.733 1.5 0.783 2.801 0.15 0.733-0.333 1.699-0.883 2.899-1.65 1.5-0.633 2.417-1.167 2.75-1.6 0.4-0.5 0.617-1.45 0.65-2.85 0.033 1.533 0.017 2.65-0.05 3.35-0.101 1.267-0.4 2.316-0.9 3.15l-0.85 1.25c-2.601 0.867-4.534 1.567-5.801 2.1-0.6-0.733-0.6-1.8 0-3.2-1.966 0.567-3.449 0.517-4.449-0.15 0.133-0.533 0.566-1.183 1.3-1.95 0.7-0.767 1.116-1.466 1.25-2.1 0.233-1.034 0.166-1.817-0.2-2.35-0.366-0.6-1.083-0.833-2.15-0.7 0.7-1.267 1.2-2.2 1.5-2.8 0.5-1.033 0.334-2.05-0.5-3.05-0.199-0.233-0.533-0.55-1-0.95-0.466-0.4-0.8-0.733-1-1-0.199-0.233-0.416-0.55-0.649-0.95-0.267-0.467-0.467-0.783-0.601-0.95 0-0.833-0.333-1.833-1-3-0.533-0.934-1.166-1.8-1.899-2.6l-0.75-0.75 0.8 0.15c1.2 0.2 2.167 0.45 2.9 0.75 0.866 0.367 1.767 0.95 2.699 1.75 1.4 1.2 2.134 2.317 2.2 3.35 0.066 0.8-0.35 2.117-1.25 3.95 0.601 0.034 1.117 0.25 1.55 0.65 0.567 0.533 0.9 1.233 1 2.1 0.067 0.833-0.1 1.633-0.5 2.4-0.166 0.333-0.333 0.583-0.5 0.75l0.65 0.75c0.833 0.967 1.3 1.8 1.4 2.5zm4.05 8.7c0.166 0.5 0.566 1 1.2 1.5 0.566 0.433 0.916 0.984 1.05 1.65 0.233 1.167 0.066 1.983-0.5 2.45-0.167 0.134-0.9 0.45-2.2 0.95l-1.15 0.6c0.067-0.1 0.117-0.217 0.15-0.35v-0.2c0.066-0.366 0.134-0.616 0.2-0.75 0-0.033 0.166-0.717 0.5-2.05 0.2-0.7 0.616-1.233 1.25-1.601h-1.25c0-0.599 0.25-1.332 0.75-2.199zm-5.1 5c0.467 0.033 1.101-0.2 1.9-0.7 0.233 0.333 0.384 0.75 0.45 1.25 0.033 0.3 0.05 0.75 0.05 1.35l-0.05-0.2c-0.066-0.233-0.134-0.649-0.2-1.25-0.733 0.134-1.25 0.15-1.55 0.051-0.2-0.068-0.4-0.234-0.6-0.501zm-17.75-0.75l0.05 0.05c0.2 0.166 0.4 0.55 0.6 1.149 0.133 0.467 0.433 0.75 0.9 0.851 0.7 0.166 1.617-0.417 2.75-1.75 1.033-1.2 1.95-1.5 2.75-0.9-0.167-1.3 0.25-2.25 1.25-2.85 0.933-0.567 2.017-0.7 3.25-0.4 0.1 0.934 0.1 1.517 0 1.75 0.5-0.933 1.183-1.216 2.05-0.85 0.566 0.267 1.184 0.8 1.85 1.6l0.601 0.7c-0.334-0.066-1.2 0-2.601 0.2-1.133 0.133-1.916 0.017-2.35-0.351-0.101 0.2-0.334 0.517-0.7 0.95-0.366 0.367-0.6 0.667-0.7 0.9-0.133 0.267-0.184 0.816-0.149 1.649 0.033 0.733-0.101 1.267-0.4 1.601-0.333 0.399-0.717 0.633-1.15 0.7-0.466 0.066-0.767-0.134-0.899-0.601-0.233 1.367-1.317 2.167-3.25 2.4-1.9 0.233-2.567-0.601-2-2.5-1.1 0.1-2.184 0.85-3.25 2.25-0.9 1.233-2.083 1.717-3.55 1.45-0.533-0.101-1.066-0.334-1.6-0.7-0.6-0.434-1.083-0.7-1.45-0.8-0.333-0.101-0.867-0.117-1.6-0.051-0.8 0.067-1.35 0.084-1.65 0.051-0.233-1.267-0.4-2.017-0.5-2.25 0.633 0.233 1.467 0.399 2.5 0.5 1.233 0.133 2.05 0.05 2.45-0.25 0.267-0.2 0.517-0.617 0.75-1.25 0.267-0.834 0.45-1.317 0.55-1.45 0.133 0.2 0.183 0.416 0.15 0.649 2.7 0.634 4.05-0.149 4.05-2.35 0.065 0.036 0.498 3e-3 1.298-0.097zm5.5-5.4c0-0.467 0.1-0.783 0.3-0.95 0.167-0.2 0.617-0.267 1.35-0.2-0.167 0.467-0.383 0.783-0.65 0.95-0.2 0.1-0.533 0.167-1 0.2zm-3.7 3.4c-0.033 0.333-0.433 0.6-1.2 0.8 0-1.167 0.033-1.917 0.1-2.25 0.2 0.7 0.567 1.184 1.1 1.45zm7.85-9.2l-0.15-0.3 0.2-0.15-0.05 0.45zm0.75-9.1c0.667 0.467 1.033 1.083 1.1 1.85-0.066-0.133-0.199-0.3-0.399-0.5l-0.701-1.35zm-23.6 31.85c-1.233-0.134-2.066-0.25-2.5-0.351 2.133-0.833 2.467-2.383 1-4.649-1.367-2.134-2.933-3.3-4.7-3.5h-0.25c0.2 0.066 0.316 0.316 0.35 0.75 0 0.366-0.05 0.75-0.15 1.149-0.267-0.033-0.55 0.034-0.85 0.2l-0.7 0.351c1.2 2.533 0.95 3.983-0.75 4.35-2.533 0-4.434 0.1-5.7 0.3 0.167 0.8-0.333 1.384-1.5 1.75-0.233-0.033-0.75-0.017-1.55 0.05-0.667 0.067-1.133 0.051-1.4-0.05v-0.6l-0.05-1.6c0.167 0.267 0.417 0.483 0.75 0.65 0.934 0.5 1.717 0.467 2.35-0.1 0.567-0.4 0.7-1.417 0.4-3.051h0.05c0.4 0.367 1.05 0.534 1.95 0.5 0.867-0.066 1.55-0.267 2.05-0.6v-0.55l2.5-6c-0.067-0.267-0.05-0.517 0.05-0.75l0.05-0.15 0.4-0.1c1.367-0.2 2.617 0.383 3.75 1.75 0.633 0.733 1.383 1.983 2.25 3.75 1.167-0.233 1.85 0.483 2.05 2.149 0.133 0.935 0.183 2.385 0.15 4.352zm45.15 0.95c-0.366-1.2-0.616-2.184-0.75-2.95 0.267 0.8 0.783 1.3 1.55 1.5 0.801 0.233 1.551 0.083 2.25-0.45 0 0.533 0.15 0.95 0.45 1.25 0.167 0.167 0.566 0.384 1.2 0.65 1.267 0 2.333-0.084 3.2-0.25 0.533 0 0.833 0.233 0.899 0.699 1.067 0 1.767-0.1 2.101-0.3 0.533-0.333 0.816-1.017 0.85-2.05 0.9 0.5 2.084 0.733 3.55 0.7 1.601-0.033 2.733-0.4 3.4-1.101 0.1-0.1 0.417-0.767 0.95-2 0.333-0.733 1-1.1 2-1.1-0.233 0.434-0.434 1.167-0.601 2.2-0.433 0-0.75 0.116-0.949 0.35-0.2 0.2-0.367 0.517-0.5 0.95l-0.351 0.05c0.267 1.467-0.35 2.4-1.85 2.8l-2.25-0.899c0.434 0.566 0.616 1.2 0.55 1.899-1.2 0.5-2.55 0.65-4.05 0.45-1.7-0.333-3.017-0.583-3.95-0.75-0.533-0.1-1.35-0.133-2.45-0.1-1.6 0.033-2.566 0.05-2.899 0.05-0.9-1.031-1.68-1.564-2.35-1.598zm-11.45-9.4c0.267 0.033 0.5-0.017 0.7-0.15 1.2 0.667 2.816 1.084 4.851 1.25-0.667 0.434-1.351 0.517-2.051 0.25-0.8-0.433-1.433-0.75-1.899-0.949-0.835-0.168-1.368-0.301-1.601-0.401zm31.95 24.95l-1.25 0.95c-0.5 0-0.85-0.017-1.05-0.051 1.833-0.733 2.816-1.55 2.95-2.449l1.8 0.949c-0.333 0.267-0.733 0.417-1.2 0.45-0.67 0.034-1.08 0.085-1.25 0.151z" fill="#585D3B"/>
	<path d="m22 73.3v0.05c1.067 0.267 2.1 0.2 3.1-0.199-0.267 0.233-0.434 0.517-0.5 0.85-0.033 0.2-0.067 0.5-0.1 0.9 1.3 0.233 2.467 0.133 3.5-0.301 0.433 1.2 1.867 2.15 4.3 2.851 2.5 0.733 3.917 0.416 4.25-0.95 2.267 0.533 4.083 0.667 5.45 0.4 0.1-0.434 0.017-1.067-0.25-1.9 0.233 0.2 0.617 0.333 1.15 0.4 0.967 0.166 1.467 0.25 1.5 0.25-0.133 1.166 0.184 1.85 0.95 2.05 0.467 0.133 1.3 0.25 2.5 0.35 0.433 0.134 1 0.334 1.7 0.601 0.633 0.233 1.25 0.366 1.85 0.399-0.033 0.233 0 0.684 0.1 1.351 1.767 0.233 3.05 0.149 3.85-0.25 0.367 0.8 1.35 1.166 2.95 1.1s2.317-0.616 2.15-1.65c0.2 1.034 0.85 1.684 1.95 1.95 0.934 0.2 1.917 0.117 2.95-0.25 0.267-1.233 0.183-3-0.25-5.3 0.133 0.066 0.983 0.017 2.55-0.15 0.833-0.1 1.133 0.551 0.9 1.95l1.4 0.15c0.4-0.066 0.75-0.033 1.05 0.1 0.367 0.2 0.517 0.5 0.45 0.9 0.066 0.033 0.267 0.25 0.6 0.649 0.167 0.2 0.6 0.334 1.3 0.4 0.267 0.033 0.65 0 1.15-0.1 0.5-0.101 0.85-0.134 1.05-0.101 0.233 0.033 0.9 0.25 2 0.65 0.767-0.066 1.434-0.05 2 0.05 0.367 0.267 0.5 0.616 0.4 1.05-0.134 0.566 0.033 1.017 0.5 1.351 0.666 0.133 1.467 0.166 2.399 0.1 0.834-0.1 1.334-0.2 1.5-0.3 0.4-0.167 0.634-0.566 0.7-1.2 0.634 0.467 1.334 0.616 2.101 0.45 0.833-0.2 1.283-0.684 1.35-1.45 1.134 0.333 2.15 0.384 3.05 0.15 0.533-0.134 1.467-0.467 2.8-1 0.434-0.134 1.517-0.2 3.25-0.2 1.467-0.167 2.084-0.783 1.851-1.851 0.366 0.634 1.233 1 2.6 1.101 1.4 0.1 2.367-0.134 2.9-0.7 0.399-0.4 0.583-1.033 0.55-1.9-0.033-0.933 0.083-1.6 0.35-2 0.367 1.5 0.767 3.617 1.2 6.351 1.367-0.267 2.533-1.334 3.5-3.2 0.834-1.6 1.3-3.316 1.4-5.15 0.066 1 0.3 2.317 0.7 3.95 0.533 0.033 1.017-0.217 1.449-0.75-0.466-1.967-1.166-3.217-2.1-3.75h-0.05c-0.564-0.332-1.114-0.266-1.65 0.2 0.335-0.306 0.585-0.905 0.75-1.8 0.2-0.9 0.15-1.55-0.149-1.95-0.301-0.434-0.95-0.65-1.95-0.65-1.134 0-1.884-0.116-2.25-0.35 0.233-0.967 0.316-1.75 0.25-2.35 0.833 0.5 2.184 0.883 4.05 1.149l2.45 0.25c-0.033 0.434 0.116 1.167 0.45 2.2 0.133 0.366 0.25 0.967 0.35 1.8 0.2 0.5 0.533 0.834 1 1 0.434 0.2 0.917 0.233 1.45 0.101-0.634-0.334-1.05-0.983-1.25-1.95-0.2-1.134-0.283-2.134-0.25-3 2.2 0.1 4.133-0.084 5.8-0.55 0.1 0.333 0.116 0.6 0.05 0.8-0.133 0.566-0.566 0.983-1.3 1.25-0.9 0.267-1.55 0.483-1.95 0.649 0.4 0.367 0.967 1.067 1.7 2.101v0.1c0.9 0.634 1.983 0.834 3.25 0.601 1.366-0.233 1.967-0.917 1.8-2.051 0.634 0.367 1.101 0.5 1.4 0.4 0.399 0.033 0.833 0 1.3-0.1 0.233-0.301 0.333-0.617 0.3-0.95 1.167-0.601 2.033-1.066 2.601-1.4 1.033-0.6 1.783-1.267 2.25-2 0.066 0.634 0.116 1.584 0.149 2.851 1.167-0.534 1.566-2.75 1.2-6.65-0.7-4.4-1.116-7.184-1.25-8.35 0.233 0.866 1.25 1.3 3.05 1.3 0.967 0 2.25-0.05 3.851-0.15 0 0.134 0.033 0.434 0.1 0.9 0.066 0.434 0.083 0.733 0.05 0.899 1.134 0 1.617 0.65 1.45 1.95 1.2-0.399 1.9-0.733 2.1-1s0.317-1.017 0.351-2.25c-0.134-1.633-0.184-2.934-0.15-3.899 0.066-1.733 0.566-2.784 1.5-3.15 0.367 0.767 1.017 1.233 1.95 1.4l-0.2 0.55c0.533 0.233 0.816 0.684 0.851 1.35 0.033 0.3-0.017 0.884-0.15 1.75l-0.8 0.101c0.5 0.866 0.483 1.6-0.05 2.199-0.467 0.567-1.2 0.9-2.2 1 0.633-0.033 1.25 0.15 1.85 0.551 0.566 0.433 0.967 1.017 1.2 1.75-0.366 0.366-0.9 0.55-1.6 0.55-1.101 0-1.717 0.017-1.851 0.05 0.4 0.1 1.267 0.25 2.601 0.45 1.033 0.333 1.283 0.934 0.75 1.8-0.2 0.333-0.7 0.55-1.5 0.65-0.733 0.1-1.15 0.466-1.25 1.1-0.9 0.066-2.551 0.517-4.95 1.35 0.2 0.101 0.383 0.267 0.55 0.5 0.2 0.301 0.35 0.483 0.45 0.551-0.566 0.767-1.617 1.083-3.15 0.949 2.101 0.233 2.917 1.034 2.45 2.4 0.467 0.3 1.6 0.45 3.4 0.45 1.466 0.2 1.899 0.95 1.3 2.25-0.334 0.033-0.684 0.166-1.05 0.399-0.467 0.267-0.817 0.434-1.051 0.5-0.966 0.267-2.233 0.317-3.8 0.15-1.767-0.267-3.066-0.434-3.899-0.5l-0.051 1.1 0.15 0.25-0.25 0.2c-0.2 1.101-0.3 1.783-0.3 2.05-0.033 0.733 0.133 1.217 0.5 1.45-0.134 0.167-0.3 0.483-0.5 0.95 0.267 0.167 0.916 0.384 1.95 0.65 0.899 0.333 1.366 0.733 1.399 1.199 0.033 0.934-0.533 1.4-1.7 1.4 0.667 0.967 0.067 1.4-1.8 1.3-1.6-0.066-2.8-0.283-3.6-0.649 0.066 0.933-0.316 1.35-1.15 1.25-0.8-0.101-1.233-0.601-1.3-1.5-0.566 0.133-1.316 0.133-2.25 0 0.033-0.167 0.033-0.45 0-0.851-0.066-0.434-0.083-0.733-0.05-0.899h-1.4c-0.558-0.033-0.666-0.133-0.325-0.301-0.594 0.267-1.452 0.384-2.574 0.351-1.567-0.033-2.45-0.05-2.65-0.05-0.434 0.966 0.066 1.816 1.5 2.55 1.434 0.767 1.983 1.583 1.65 2.45-0.167 0.033-1 0.05-2.5 0.05 0.133 0.233 0.199 0.533 0.199 0.899-1.933 0-3.05 0.634-3.35 1.9-1.233-0.434-2.167-0.733-2.8-0.9-0.8-0.166-1.267-0.267-1.4-0.3-0.467-0.166-0.767-0.399-0.899-0.7-0.967 0.2-1.817 0.217-2.551 0.051-0.933-0.233-1.35-0.717-1.25-1.45-0.199 0.866-0.85 1.217-1.949 1.05-1.167-0.167-1.483-0.667-0.95-1.5-0.3-0.267-1.134-0.566-2.5-0.9-1.033-0.233-1.917-0.383-2.65-0.449-1.666-0.267-3.166-0.084-4.5 0.55 0.367 0.233 0.634 0.533 0.8 0.899 0.167 0.434 0.101 0.834-0.199 1.2 1.166 0.667 1.533 1.45 1.1 2.351-0.366 0.033-0.866-0.017-1.5-0.15-0.711-0.171-1.211-0.254-1.511-0.254 0.733 0.934 0.45 1.384-0.85 1.35-0.9 0-1.784-0.149-2.65-0.449-0.1-0.5-0.4-0.801-0.9-0.9-0.833 0.1-1.683 0.1-2.55 0-0.434-0.333-0.684-0.566-0.75-0.7-0.1-0.267 0.017-0.616 0.351-1.05-0.567-0.1-1.351 0.066-2.351 0.5-0.967 0.4-1.684 0.5-2.149 0.3 0-0.233 0.116-0.5 0.35-0.8-0.566-0.134-1.467-0.167-2.7-0.1-1.233 0.1-2.149 0.066-2.75-0.101 0.134-0.399 0.417-0.816 0.851-1.25 0.466-0.434 0.8-0.767 1-1-1.301 0.066-2.267 0.066-2.9 0 0.133-0.399 0.25-0.666 0.35-0.8-0.333 0.267-0.733 0.35-1.2 0.25-0.566-0.1-0.95-0.116-1.15-0.05-0.667 0.166-1.067 0.583-1.2 1.25-0.633 0.399-1.117 0.666-1.45 0.8-0.567 0.267-1.05 0.167-1.45-0.3-0.5 1-1.667 1.866-3.5 2.6-1.933 0.8-3.033 0.566-3.3-0.7-1.767 0.5-3.35 0.534-4.75 0.101l0.65-0.65c-1.867 0.101-3.267 0.217-4.2 0.351-0.733 0.233-1.283 0.383-1.65 0.449-0.6 0.167-1.15 0.017-1.65-0.449 0.033-0.233 0.167-0.4 0.4-0.5-1.733 0.199-3.15 0.066-4.25-0.4 0.1-0.066 0.233-0.3 0.4-0.7 0.2-0.399 0.333-0.616 0.4-0.649-6.2-0.233-9.3-0.551-9.3-0.95-0.4 0.533-1.233 0.916-2.5 1.149-1.066 0.2-2.017 0.25-2.85 0.15-0.133-0.634-0.183-1.033-0.15-1.2-1 0.3-1.967 0.384-2.9 0.25-1.267-0.166-1.583-0.75-0.95-1.75-0.235-0.035-0.769-0.052-1.602-0.052-0.667 0.033-1.217-0.033-1.65-0.2l0.4-0.7c0.133-0.199 0.367-0.383 0.7-0.55-1.467 0.134-2.5 0.084-3.1-0.149 0.1-0.733 0.517-1.15 1.25-1.25-2.5 0.166-4.633 0.149-6.4-0.051 0.833-0.533 1.317-0.816 1.45-0.85-1.7 0.134-2.967 0.066-3.8-0.2-0.233-0.333-0.183-0.583 0.15-0.75-1.534 0.101-2.45 0.134-2.75 0.101-1.067-0.134-1.7-0.634-1.9-1.5 0.934-0.7 2.35-0.983 4.25-0.851 2.267 0.167 3.717 0.167 4.35 0l1.35-0.75zm-2.4-0.3l0.4-0.55c0.4 0 1.033 0.033 1.9 0.1l0.05 0.55h-0.9c-0.667 0-1.15-0.034-1.45-0.1zm0.6-1.85c0.033-0.4 0.066-0.7 0.1-0.9 0.4 0.233 0.883 0.434 1.45 0.6l-0.65 0.1c-0.233 0.033-0.467 0.116-0.7 0.25l-0.2-0.05zm-15.45-10.7l0.7 0.5c-1.367 0.633-1 1.283 1.1 1.95 1.733 0.566 3.583 0.899 5.55 1 0.267-0.467 0.617-0.483 1.05-0.051-0.133 0.034-0.483 0.051-1.05 0.051-0.167 0.3-0.184 0.616-0.05 0.949 0.667 0.233 1.617 0.584 2.85 1.051 1.067 0.366 2.1 0.583 3.1 0.649-0.167 0.2-0.267 0.5-0.3 0.9-0.034 0.467-0.067 0.75-0.1 0.85 0.167 0 0.467 0.05 0.9 0.15 0.4 0.1 0.7 0.133 0.9 0.1 0 0.634 0.2 1.117 0.6 1.45-1.333 0.366-2.283 0.6-2.85 0.7-0.533 0.1-1.05 0.149-1.55 0.149l-1.5-0.148c-0.2-0.334-0.2-0.684 0-1.05-2.333 0.533-3.934 0.449-4.8-0.25 0.1-0.601 0.534-1.217 1.3-1.851-1.033 0.033-1.817 0.033-2.35 0-1 0-1.7-0.267-2.1-0.8 0.2-0.2 0.417-0.25 0.65-0.15-0.533-0.267-1.333-0.783-2.4-1.55-0.8-0.566-1.617-0.949-2.45-1.149s-1.434-0.601-1.8-1.2c-0.433-0.634-0.05-0.917 1.15-0.851-0.033-0.899 0.417-1.366 1.35-1.399 0.833-0.033 1.517 0.25 2.05 0.85-0.1-0.2-0.1-0.45 0-0.75 0.033-0.033 0.05-0.067 0.05-0.1zm74.5-33.35c-0.434-0.367-0.983-0.583-1.65-0.65h-0.15l0.399-1.05 1.601-4.45c0.399 0.233 0.7 0.483 0.899 0.75 0.134 0.167 0.334 0.483 0.601 0.95 0.233 0.4 0.45 0.717 0.649 0.95 0.2 0.267 0.534 0.6 1 1 0.467 0.4 0.801 0.717 1 0.95 0.834 1 1 2.017 0.5 3.05-0.3 0.6-0.8 1.533-1.5 2.8 1.067-0.133 1.784 0.1 2.15 0.7 0.366 0.533 0.434 1.316 0.2 2.35-0.134 0.633-0.55 1.333-1.25 2.1-0.733 0.767-1.167 1.417-1.3 1.95 1 0.667 2.483 0.717 4.449 0.15-0.6 1.4-0.6 2.467 0 3.2 1.267-0.533 3.2-1.233 5.801-2.1l0.449-0.2c0.101 0.534-0.017 1.133-0.35 1.8-0.2 0.4-0.55 1-1.05 1.8-0.5 0.867-0.75 1.6-0.75 2.2h1.25c-0.634 0.367-1.05 0.9-1.25 1.601-0.334 1.333-0.5 2.017-0.5 2.05-0.066 0.134-0.134 0.384-0.2 0.75v0.2c-0.033 0.133-0.083 0.25-0.15 0.35l-0.05 0.05c-0.2 0.134-0.434 0.184-0.7 0.15l-0.3-0.1-0.048-0.351c0-0.6-0.017-1.05-0.05-1.35-0.066-0.5-0.217-0.917-0.45-1.25-0.8 0.5-1.434 0.733-1.9 0.7-0.399-0.034-0.966-0.5-1.699-1.4l-0.601-0.7c-0.666-0.8-1.283-1.333-1.85-1.6-0.867-0.367-1.55-0.083-2.05 0.85 0.1-0.233 0.1-0.816 0-1.75-1.233-0.3-2.317-0.167-3.25 0.4-1 0.6-1.417 1.55-1.25 2.85-0.8-0.6-1.717-0.3-2.75 0.9-1.133 1.333-2.05 1.916-2.75 1.75-0.467-0.101-0.767-0.384-0.9-0.851-0.2-0.6-0.4-0.983-0.6-1.149l-0.05-0.05c-0.7-0.534-1.467-0.851-2.3-0.95 1.2 0 2.167-0.084 2.9-0.25 0.767-0.2 1.167-0.467 1.2-0.8 0.067-0.301-0.117-0.617-0.55-0.95 1.833 0 2.933-0.017 3.3-0.05 0.1-0.733 0.017-1.5-0.25-2.3 0.3-0.067 0.7-0.1 1.2-0.1 0.467-0.033 0.8-0.1 1-0.2 0.267-0.167 0.483-0.483 0.65-0.95v-0.1c0.233-0.633 0.184-1.267-0.15-1.9-0.233-0.5-0.55-0.8-0.95-0.9 0.333 0.033 0.733 0.066 1.2 0.1l1.4-0.1c0.5-0.167 0.833-0.7 1-1.6v-0.15l0.05-0.45c0.066-0.867-0.25-1.6-0.95-2.2 0.334 0.034 0.934-0.017 1.801-0.15 0.199-0.533 0.166-1.033-0.101-1.5-0.233-0.467-0.633-0.783-1.2-0.95 0.834 0.033 1.45-0.15 1.851-0.55 0.333-0.367 0.467-0.85 0.399-1.45-0.067-0.767-0.433-1.383-1.1-1.85zm-37.8 34.8c-1.434 0-2.567-0.417-3.4-1.25-0.4 0.866-1.3 1.149-2.7 0.85-1.6-0.533-2.75-0.866-3.45-1 1.333 0.066 2.367-0.116 3.1-0.55 0.1-0.3 0.05-0.566-0.15-0.8 0.467 0.233 1.217 0.366 2.25 0.399 1.1 0.066 2.033-0.017 2.8-0.25 1.167-0.366 1.667-0.95 1.5-1.75 1.267-0.2 3.167-0.3 5.7-0.3 1.7-0.366 1.95-1.816 0.75-4.35l0.7-0.351c0.3-0.166 0.583-0.233 0.85-0.2 0.1-0.399 0.15-0.783 0.15-1.149-0.033-0.434-0.15-0.684-0.35-0.75h0.25c1.767 0.2 3.333 1.366 4.7 3.5 1.467 2.267 1.133 3.816-1 4.649 0.434 0.101 1.267 0.217 2.5 0.351 1.934 0.166 3.283 0.383 4.05 0.649 1.333 0.4 1.95 1.067 1.85 2-0.066 1-1.1 1.551-3.1 1.65-1.833 0.134-3.434-0.116-4.8-0.75-0.7-0.333-1.1-0.684-1.2-1.05-0.034 0.833-0.633 1.399-1.8 1.7-1.066 0.3-2.2 0.283-3.4-0.051-0.7-0.199-1.25-0.466-1.65-0.8-0.434-0.399-0.7-0.8-0.8-1.2-1.067 0.537-2.183 0.803-3.35 0.803zm23.65 14.1l-0.1-0.05c-0.6-0.3-0.817-1.384-0.65-3.25l0.1-0.75v-0.4l0.05 0.4v0.7c0.067 0.666 0.267 1.784 0.6 3.35zm16.85-44.05c0 0.7-0.25 1.633-0.75 2.8-0.267 0.667-0.667 1.567-1.2 2.7-0.467 1.3-1.283 2.7-2.45 4.2l0.8 0.2c0.267 0.033 0.534-0.017 0.801-0.15 0.133-0.034 0.316-0.2 0.55-0.5 0.6 0.433 1.666 0.683 3.2 0.75h2.8l-3.5-1c-0.7-0.5-1.25-0.85-1.65-1.05 0.2-0.367 0.351-0.783 0.45-1.25 0.1-0.566 0.184-1.033 0.25-1.4 0.434-2.633 0.833-4.567 1.2-5.8l-0.501 0.5zm39.9 24.75c0.634-0.066 1-0.233 1.101-0.5v4.951c-0.101 0.333-0.584 0.6-1.45 0.8-0.134 0.033-0.566 0.017-1.3-0.05-0.5-0.034-0.851 0.149-1.05 0.55-0.067 0.166 0.05 0.467 0.35 0.899 0.167 0.267 0.483 0.717 0.95 1.351l0.35 0.6-5.1-0.85c-1.434 0-3.15-0.134-5.15-0.4-2.233-0.333-3.934-0.583-5.1-0.75 0.366 0.467 0.816 0.884 1.35 1.25-0.566-0.033-1.2-0.383-1.899-1.05-0.767-0.9-1.351-1.566-1.75-2-0.834-0.066-1.45-0.15-1.851-0.25-0.767-0.167-1.366-0.483-1.8-0.95 0.4-0.267 0.833-0.399 1.3-0.399 0.667 0.033 1.45 0.566 2.351 1.6 0.333 0 1.3-0.017 2.899-0.05 1.101-0.033 1.917 0 2.45 0.1 0.934 0.167 2.25 0.417 3.95 0.75 1.5 0.2 2.85 0.05 4.05-0.45 0.066-0.699-0.116-1.333-0.55-1.899l2.25 0.899 0.25 0.101c0.733-0.101 1.233-0.467 1.5-1.101 0.2-0.833 0.35-1.449 0.45-1.85 0.133-0.434 0.3-0.75 0.5-0.95 0.2-0.236 0.52-0.352 0.95-0.352zm-0.55 18.75c0.167-0.066 0.584-0.117 1.25-0.15 0.467-0.033 0.867-0.184 1.2-0.45l-1.8-0.949c-0.134 0.899-1.117 1.716-2.95 2.449 0.2 0.034 0.55 0.051 1.05 0.051l1.25-0.951zm-67.8-14.5c-0.067-0.4-0.317-0.9-0.75-1.5-0.467-0.667-0.8-1.15-1-1.45 0.7-1.333 1.017-2.767 0.95-4.3l-2 2.25c0.1 1.3-0.417 2.283-1.55 2.95-0.367 0.233-0.933 0.383-1.7 0.449-0.833 0.067-1.417 0.2-1.75 0.4 0.367 0.467 1 0.717 1.9 0.75 0.833 0.066 1.533-0.05 2.1-0.35 0.2-0.067 0.466-0.233 0.8-0.5 0.3 0.333 0.817 0.633 1.55 0.899 0.6 0.235 1.083 0.369 1.45 0.402z" fill="#414428"/>
	<path d="m81.95 31.95l0.5-0.5c-0.367 1.233-0.767 3.167-1.2 5.8-0.066 0.367-0.15 0.833-0.25 1.4-0.1 0.467-0.25 0.883-0.45 1.25 0.4 0.2 0.95 0.55 1.65 1.05l3.5 1h-2.8c-1.534-0.067-2.601-0.317-3.2-0.75-0.233 0.3-0.417 0.466-0.55 0.5-0.267 0.133-0.534 0.183-0.801 0.15l-0.8-0.2c1.167-1.5 1.983-2.9 2.45-4.2 0.533-1.133 0.934-2.034 1.2-2.7 0.501-1.167 0.751-2.1 0.751-2.8zm38.85 33.35l0.9 0.15-0.7 0.2c-1.667 0.466-3.6 0.649-5.8 0.55-0.033 0.866 0.05 1.866 0.25 3 0.2 0.967 0.616 1.616 1.25 1.95-0.533 0.133-1.017 0.1-1.45-0.101-0.467-0.166-0.8-0.5-1-1-0.1-0.833-0.217-1.434-0.35-1.8-0.334-1.033-0.483-1.767-0.45-2.2l-2.45-0.249c-1.866-0.267-3.217-0.649-4.05-1.149l-0.15-0.101c-0.533-0.366-0.983-0.783-1.35-1.25 1.166 0.167 2.866 0.417 5.1 0.75 2 0.267 3.717 0.4 5.15 0.4l5.1 0.85zm-67.3-4.35c-0.367-0.033-0.85-0.167-1.45-0.4-0.733-0.267-1.25-0.566-1.55-0.899-0.333 0.267-0.6 0.433-0.8 0.5-0.567 0.3-1.267 0.416-2.1 0.35-0.9-0.033-1.533-0.283-1.9-0.75 0.333-0.2 0.917-0.333 1.75-0.4 0.767-0.066 1.333-0.216 1.7-0.449 1.133-0.667 1.65-1.65 1.55-2.95l2-2.25c0.066 1.533-0.25 2.967-0.95 4.3 0.2 0.3 0.533 0.783 1 1.45 0.433 0.598 0.683 1.098 0.75 1.498z" fill="#695D3F"/>
</g>
</svg>
