<?xml version="1.0" encoding="utf-8"?>
<!-- Generator: Adobe Illustrator 21.1.0, SVG Export Plug-In . SVG Version: 6.00 Build 0)  -->
<svg version="1.1" id="car" xmlns="http://www.w3.org/2000/svg" xmlns:xlink="http://www.w3.org/1999/xlink" x="0px" y="0px"
	 viewBox="0 0 140.3 310.1" style="enable-background:new 0 0 140.3 310.1;" xml:space="preserve">
<style type="text/css">
	.st0{fill:#E6E7E8;}
	.st1{fill:#BE1E2D;}
	.st2{fill:#F1F2F2;}
	.st3{fill:#1F354A;}
</style>
<g>
	<path class="st0" d="M70.1,310.1C38,310.1,3.5,291,0.7,269.7C-2.1,248.4,5,203.2,5,203.2s0-73.6,0-92.1s-8.3-35.5,0-74.8
		C13.3-2.9,70.1,0.1,70.1,0.1s56.7-3.1,65.1,36.2c8.3,39.2,0,56.3,0,74.8s0,92.1,0,92.1s7.1,45.1,4.3,66.5
		C136.8,291,102.3,310.1,70.1,310.1z"/>
	<path class="st1" d="M1.2,272c0.1,0.4,0.2,0.9,0.3,1.3c0.1,0.2,0.1,0.4,0.2,0.6c0.2,0.5,0.4,1,0.6,1.6c0,0.1,0.1,0.1,0.1,0.2
		c0.2,0.6,0.5,1.2,0.8,1.7c0.1,0.2,0.2,0.3,0.3,0.5c0.2,0.4,0.4,0.8,0.7,1.2c0.1,0.2,0.2,0.4,0.3,0.6c0.3,0.4,0.5,0.9,0.8,1.3
		c0.1,0.1,0.2,0.3,0.3,0.4c0.4,0.5,0.8,1.1,1.2,1.6c0.1,0.2,0.3,0.4,0.4,0.6c0.3,0.4,0.6,0.7,0.9,1.1c0.2,0.2,0.4,0.4,0.5,0.6
		c0.3,0.3,0.6,0.7,0.9,1c0.2,0.2,0.3,0.4,0.5,0.6c0.5,0.5,1,1,1.5,1.4c0.2,0.2,0.5,0.4,0.7,0.6c0.3,0.3,0.6,0.6,1,0.9
		c0.3,0.2,0.5,0.5,0.8,0.7c0.3,0.3,0.6,0.5,0.9,0.8c0.3,0.2,0.6,0.5,0.9,0.7c0.4,0.3,0.9,0.7,1.3,1c0.5,0.3,0.9,0.7,1.4,1
		c0.3,0.2,0.6,0.4,0.8,0.6c0.4,0.3,0.8,0.5,1.2,0.8c0.3,0.2,0.5,0.3,0.8,0.5c0.4,0.3,0.8,0.5,1.3,0.8c0.1,0.1,0.2,0.1,0.3,0.2
		c1,0.6,2,1.2,3,1.7c0.2,0.1,0.4,0.2,0.5,0.3c0.5,0.3,1,0.5,1.5,0.8c0.2,0.1,0.4,0.2,0.6,0.3c0.5,0.3,1.1,0.5,1.6,0.8
		c1.3,0.6,2.6,1.2,4,1.8c0,0,0,0,0.1,0c0.6,0.3,1.2,0.5,1.9,0.8c0.1,0.1,0.3,0.1,0.4,0.2c2.7,1,5.4,2,8.2,2.8c0.1,0,0.2,0.1,0.4,0.1
		c0.7,0.2,1.4,0.4,2,0.6c-9.2-6.2-20.3-20.9-24.9-48.1c-1.8-10.4-5.1-22.9-8.6-34.5L8.3,64l-3.7,39.2c0.3,2.6,0.4,5.3,0.4,7.9
		c0,18.5,0,92.1,0,92.1s-1.1,7-2.3,16.8c-0.1,0.9-0.2,1.8-0.3,2.8c0,0.1,0,0.1,0,0.2c-0.2,1.9-0.4,3.9-0.6,6c0,0.1,0,0.1,0,0.2
		c-0.1,1-0.2,2-0.3,3.1v0.1c-0.1,1-0.2,2.1-0.3,3.2c0,0.1,0,0.1,0,0.2c-0.1,1-0.2,2.1-0.3,3.1c0,0.1,0,0.1,0,0.2
		c-0.1,1.1-0.2,2.1-0.2,3.2v0.1c-0.1,1-0.1,2.1-0.2,3.1c0,0.1,0,0.2,0,0.3c-0.1,1.1-0.1,2.1-0.2,3.2c0,1-0.1,2.1-0.1,3.1
		c0,0.1,0,0.2,0,0.3c0,1,0,2-0.1,3c0,0.1,0,0.1,0,0.2c0,1,0,2,0,3c0,0.1,0,0.2,0,0.2c0,0.9,0,1.8,0,2.7c0,0.1,0,0.1,0,0.2
		c0,0.9,0.1,1.8,0.1,2.7v0.1c0,0.9,0.1,1.7,0.2,2.5c0,0.1,0,0.2,0,0.2c0.1,0.8,0.2,1.7,0.3,2.4c0.1,0.6,0.2,1.2,0.3,1.8
		C1.1,271.7,1.2,271.8,1.2,272z"/>
	<path class="st1" d="M139.8,267c0.1-0.8,0.1-1.6,0.2-2.5c0-0.1,0-0.1,0-0.2c0-0.9,0.1-1.8,0.1-2.7c0-0.1,0-0.1,0-0.2
		c0-0.9,0-1.8,0-2.7c0-0.1,0-0.2,0-0.3c0-1,0-2,0-3c0-1,0-2-0.1-3c0-0.1,0-0.2,0-0.3c0-1-0.1-2-0.1-3c0-0.1,0-0.1,0-0.2
		c0-1-0.1-2.1-0.2-3.2c0-0.1,0-0.1,0-0.2c-0.1-1-0.1-2.1-0.2-3.1c0-0.1,0-0.1,0-0.2c-0.1-2.2-0.3-4.3-0.5-6.5v-0.1
		c-0.5-5.5-1-10.8-1.6-15.5c-1.2-10-2.3-17.1-2.3-17.1s0-73.6,0-92.1c0-4.2,0.4-8.4,1-12.7l-3.2-34.4l-5.2,160.4
		c-3.5,11.5-6.8,24.1-8.6,34.5c-4.5,26.5-15.1,41.1-24.2,47.6c2.1-0.6,4.1-1.2,6.1-2c0.1,0,0.2-0.1,0.4-0.1c2-0.7,4-1.5,5.9-2.3
		c0.6-0.3,1.2-0.5,1.7-0.8c0.2-0.1,0.3-0.2,0.5-0.2c1.7-0.8,3.4-1.7,5-2.6c0.2-0.1,0.3-0.2,0.5-0.3c0.5-0.3,0.9-0.5,1.4-0.8
		c0.2-0.1,0.5-0.3,0.7-0.4c0.4-0.3,0.9-0.5,1.3-0.8c0.2-0.1,0.3-0.2,0.4-0.3c0.8-0.5,1.6-1,2.3-1.6c0.3-0.2,0.5-0.4,0.8-0.6
		c0.4-0.3,0.7-0.5,1-0.8c0.3-0.2,0.6-0.4,0.9-0.7c0.3-0.2,0.6-0.5,0.9-0.7c0.5-0.4,1-0.8,1.5-1.3c0.3-0.2,0.5-0.4,0.7-0.7
		c0.3-0.3,0.6-0.6,0.9-0.8c0.2-0.2,0.5-0.5,0.7-0.7c0.3-0.3,0.6-0.6,0.9-0.9c0.2-0.2,0.4-0.4,0.6-0.6c0.5-0.5,0.9-1,1.3-1.5
		c0.2-0.2,0.3-0.4,0.5-0.6c0.3-0.4,0.6-0.7,0.9-1.1c0.2-0.2,0.3-0.4,0.5-0.6c0.3-0.4,0.6-0.8,0.9-1.2c0.1-0.1,0.2-0.3,0.3-0.4
		c0.4-0.5,0.7-1.1,1-1.6c0.1-0.2,0.2-0.3,0.3-0.5c0.2-0.4,0.5-0.8,0.7-1.2c0.1-0.2,0.2-0.4,0.3-0.6c0.2-0.5,0.5-1,0.7-1.5
		c0-0.1,0.1-0.1,0.1-0.2c0.2-0.6,0.4-1.2,0.6-1.7c0.1-0.2,0.1-0.3,0.2-0.5c0.1-0.4,0.3-0.9,0.4-1.3c0-0.2,0.1-0.3,0.1-0.5
		c0.1-0.6,0.2-1.2,0.3-1.8c0.1-0.8,0.2-1.6,0.3-2.4C139.8,267.2,139.8,267.1,139.8,267z"/>
	<path class="st2" d="M110.6,23.4l22.7,6.7C127.2,14.5,112.6,7,98.9,3.4L110.6,23.4z"/>
	<path class="st2" d="M40.8,3.5C27.3,7.1,13,14.6,6.9,29.9l22.2-6.5L40.8,3.5z"/>
	<path class="st1" d="M93.6,2.1c-12.8-2.5-23.4-2-23.4-2S59.1-0.5,45.9,2.2c-3.7,14.9-8.1,37.7-5,53.4c0,0,11.1-2.5,27.8-2.5
		s30,2.5,30,2.5C101.7,39.9,97.3,17,93.6,2.1z"/>
	<path class="st3" d="M22.1,102.8c0-19.9,22.6-34.9,38.7-34.9h16.3c15.7,0,40.4,16.1,41,35.3c0,1-5.7,35.3-5.7,35.3h-84L22.1,102.8z
		"/>
	<polygon class="st3" points="101.4,269 38.9,269 29.7,202.2 110.6,202.2 	"/>
	<path class="st3" d="M122.8,109.4l-6.3,38.5l2.3,76.6C118.8,224.5,127.5,175.7,122.8,109.4z"/>
	<path class="st3" d="M17.7,109.4l6.3,38.5l-2.3,76.6C21.7,224.5,13,175.7,17.7,109.4z"/>
	<polygon class="st3" points="91.2,274.7 100.1,274.7 89.2,305.1 	"/>
	<polygon class="st3" points="48.4,274.7 39.6,274.7 50.5,305.1 	"/>
	<path class="st0" d="M15,111.4c0,0-1.5-6.2-5-6.2s-10,8.2-10,12.2s2,3.4,3.8,2.1C5.7,118.3,15,111.4,15,111.4z"/>
	<path class="st0" d="M125.3,111.4c0,0,1.5-6.2,5-6.2s10,8.2,10,12.2s-2,3.4-3.8,2.1C134.5,118.3,125.3,111.4,125.3,111.4z"/>
</g>
</svg>
